<svg aria-roledescription="flowchart-v2" role="graphics-document document" viewBox="0 0 2995.484375 839" style="max-width: 2995.48px; background-color: white;" class="flowchart" xmlns:xlink="http://www.w3.org/1999/xlink" xmlns="http://www.w3.org/2000/svg" width="100%" id="my-svg"><style>#my-svg{font-family:"trebuchet ms",verdana,arial,sans-serif;font-size:16px;fill:#333;}@keyframes edge-animation-frame{from{stroke-dashoffset:0;}}@keyframes dash{to{stroke-dashoffset:0;}}#my-svg .edge-animation-slow{stroke-dasharray:9,5!important;stroke-dashoffset:900;animation:dash 50s linear infinite;stroke-linecap:round;}#my-svg .edge-animation-fast{stroke-dasharray:9,5!important;stroke-dashoffset:900;animation:dash 20s linear infinite;stroke-linecap:round;}#my-svg .error-icon{fill:#552222;}#my-svg .error-text{fill:#552222;stroke:#552222;}#my-svg .edge-thickness-normal{stroke-width:1px;}#my-svg .edge-thickness-thick{stroke-width:3.5px;}#my-svg .edge-pattern-solid{stroke-dasharray:0;}#my-svg .edge-thickness-invisible{stroke-width:0;fill:none;}#my-svg .edge-pattern-dashed{stroke-dasharray:3;}#my-svg .edge-pattern-dotted{stroke-dasharray:2;}#my-svg .marker{fill:#333333;stroke:#333333;}#my-svg .marker.cross{stroke:#333333;}#my-svg svg{font-family:"trebuchet ms",verdana,arial,sans-serif;font-size:16px;}#my-svg p{margin:0;}#my-svg .label{font-family:"trebuchet ms",verdana,arial,sans-serif;color:#333;}#my-svg .cluster-label text{fill:#333;}#my-svg .cluster-label span{color:#333;}#my-svg .cluster-label span p{background-color:transparent;}#my-svg .label text,#my-svg span{fill:#333;color:#333;}#my-svg .node rect,#my-svg .node circle,#my-svg .node ellipse,#my-svg .node polygon,#my-svg .node path{fill:#ECECFF;stroke:#9370DB;stroke-width:1px;}#my-svg .rough-node .label text,#my-svg .node .label text,#my-svg .image-shape .label,#my-svg .icon-shape .label{text-anchor:middle;}#my-svg .node .katex path{fill:#000;stroke:#000;stroke-width:1px;}#my-svg .rough-node .label,#my-svg .node .label,#my-svg .image-shape .label,#my-svg .icon-shape .label{text-align:center;}#my-svg .node.clickable{cursor:pointer;}#my-svg .root .anchor path{fill:#333333!important;stroke-width:0;stroke:#333333;}#my-svg .arrowheadPath{fill:#333333;}#my-svg .edgePath .path{stroke:#333333;stroke-width:2.0px;}#my-svg .flowchart-link{stroke:#333333;fill:none;}#my-svg .edgeLabel{background-color:rgba(232,232,232, 0.8);text-align:center;}#my-svg .edgeLabel p{background-color:rgba(232,232,232, 0.8);}#my-svg .edgeLabel rect{opacity:0.5;background-color:rgba(232,232,232, 0.8);fill:rgba(232,232,232, 0.8);}#my-svg .labelBkg{background-color:rgba(232, 232, 232, 0.5);}#my-svg .cluster rect{fill:#ffffde;stroke:#aaaa33;stroke-width:1px;}#my-svg .cluster text{fill:#333;}#my-svg .cluster span{color:#333;}#my-svg div.mermaidTooltip{position:absolute;text-align:center;max-width:200px;padding:2px;font-family:"trebuchet ms",verdana,arial,sans-serif;font-size:12px;background:hsl(80, 100%, 96.2745098039%);border:1px solid #aaaa33;border-radius:2px;pointer-events:none;z-index:100;}#my-svg .flowchartTitleText{text-anchor:middle;font-size:18px;fill:#333;}#my-svg rect.text{fill:none;stroke-width:0;}#my-svg .icon-shape,#my-svg .image-shape{background-color:rgba(232,232,232, 0.8);text-align:center;}#my-svg .icon-shape p,#my-svg .image-shape p{background-color:rgba(232,232,232, 0.8);padding:2px;}#my-svg .icon-shape rect,#my-svg .image-shape rect{opacity:0.5;background-color:rgba(232,232,232, 0.8);fill:rgba(232,232,232, 0.8);}#my-svg :root{--mermaid-font-family:"trebuchet ms",verdana,arial,sans-serif;}</style><g><marker orient="auto" markerHeight="8" markerWidth="8" markerUnits="userSpaceOnUse" refY="5" refX="5" viewBox="0 0 10 10" class="marker flowchart-v2" id="my-svg_flowchart-v2-pointEnd"><path style="stroke-width: 1; stroke-dasharray: 1, 0;" class="arrowMarkerPath" d="M 0 0 L 10 5 L 0 10 z"/></marker><marker orient="auto" markerHeight="8" markerWidth="8" markerUnits="userSpaceOnUse" refY="5" refX="4.5" viewBox="0 0 10 10" class="marker flowchart-v2" id="my-svg_flowchart-v2-pointStart"><path style="stroke-width: 1; stroke-dasharray: 1, 0;" class="arrowMarkerPath" d="M 0 5 L 10 10 L 10 0 z"/></marker><marker orient="auto" markerHeight="11" markerWidth="11" markerUnits="userSpaceOnUse" refY="5" refX="11" viewBox="0 0 10 10" class="marker flowchart-v2" id="my-svg_flowchart-v2-circleEnd"><circle style="stroke-width: 1; stroke-dasharray: 1, 0;" class="arrowMarkerPath" r="5" cy="5" cx="5"/></marker><marker orient="auto" markerHeight="11" markerWidth="11" markerUnits="userSpaceOnUse" refY="5" refX="-1" viewBox="0 0 10 10" class="marker flowchart-v2" id="my-svg_flowchart-v2-circleStart"><circle style="stroke-width: 1; stroke-dasharray: 1, 0;" class="arrowMarkerPath" r="5" cy="5" cx="5"/></marker><marker orient="auto" markerHeight="11" markerWidth="11" markerUnits="userSpaceOnUse" refY="5.2" refX="12" viewBox="0 0 11 11" class="marker cross flowchart-v2" id="my-svg_flowchart-v2-crossEnd"><path style="stroke-width: 2; stroke-dasharray: 1, 0;" class="arrowMarkerPath" d="M 1,1 l 9,9 M 10,1 l -9,9"/></marker><marker orient="auto" markerHeight="11" markerWidth="11" markerUnits="userSpaceOnUse" refY="5.2" refX="-1" viewBox="0 0 11 11" class="marker cross flowchart-v2" id="my-svg_flowchart-v2-crossStart"><path style="stroke-width: 2; stroke-dasharray: 1, 0;" class="arrowMarkerPath" d="M 1,1 l 9,9 M 10,1 l -9,9"/></marker><g class="root"><g class="clusters"><g data-look="classic" id="subGraph4" class="cluster"><rect height="104" width="901.875" y="727" x="1501.51171875" style=""/><g transform="translate(1870.66796875, 727)" class="cluster-label"><foreignObject height="24" width="163.5625"><div style="display: table-cell; white-space: nowrap; line-height: 1.5; max-width: 200px; text-align: center;" xmlns="http://www.w3.org/1999/xhtml"><span class="nodeLabel"><p>External Dependencies</p></span></div></foreignObject></g></g><g data-look="classic" id="subGraph3" class="cluster"><rect height="412" width="907.46875" y="419" x="8" style=""/><g transform="translate(392.1328125, 419)" class="cluster-label"><foreignObject height="24" width="139.203125"><div style="display: table-cell; white-space: nowrap; line-height: 1.5; max-width: 200px; text-align: center;" xmlns="http://www.w3.org/1999/xhtml"><span class="nodeLabel"><p>Core Business Logic</p></span></div></foreignObject></g></g><g data-look="classic" id="subGraph2" class="cluster"><rect height="307" width="2052.015625" y="266" x="935.46875" style=""/><g transform="translate(1880.1171875, 266)" class="cluster-label"><foreignObject height="24" width="162.71875"><div style="display: table-cell; white-space: nowrap; line-height: 1.5; max-width: 200px; text-align: center;" xmlns="http://www.w3.org/1999/xhtml"><span class="nodeLabel"><p>UI Layer (MVP Pattern)</p></span></div></foreignObject></g></g><g data-look="classic" id="subGraph0" class="cluster"><rect height="208" width="1861.22265625" y="8" x="648.0859375" style=""/><g transform="translate(1516.056640625, 8)" class="cluster-label"><foreignObject height="24" width="125.28125"><div style="display: table-cell; white-space: nowrap; line-height: 1.5; max-width: 200px; text-align: center;" xmlns="http://www.w3.org/1999/xhtml"><span class="nodeLabel"><p>Application Layer</p></span></div></foreignObject></g></g><g data-look="classic" id="subGraph1" class="cluster"><rect height="104" width="946.296875" y="444" x="2021.1875" style=""/><g transform="translate(2427.1328125, 444)" class="cluster-label"><foreignObject height="24" width="134.40625"><div style="display: table-cell; white-space: nowrap; line-height: 1.5; max-width: 200px; text-align: center;" xmlns="http://www.w3.org/1999/xhtml"><span class="nodeLabel"><p>Method-Specific UI</p></span></div></foreignObject></g></g></g><g class="edgePaths"><path marker-end="url(#my-svg_flowchart-v2-pointEnd)" style="" class="edge-thickness-normal edge-pattern-solid edge-thickness-normal edge-pattern-solid flowchart-link" id="L_A_B_0" d="M1543.508,87L1543.508,91.167C1543.508,95.333,1543.508,103.667,1543.508,111.333C1543.508,119,1543.508,126,1543.508,129.5L1543.508,133"/><path marker-end="url(#my-svg_flowchart-v2-pointEnd)" style="" class="edge-thickness-normal edge-pattern-solid edge-thickness-normal edge-pattern-solid flowchart-link" id="L_B_C_0" d="M1635.258,169.044L1777.6,176.87C1919.941,184.696,2204.625,200.348,2346.967,212.341C2489.309,224.333,2489.309,232.667,2489.309,241C2489.309,249.333,2489.309,257.667,2489.309,265.333C2489.309,273,2489.309,280,2489.309,283.5L2489.309,287"/><path marker-end="url(#my-svg_flowchart-v2-pointEnd)" style="" class="edge-thickness-normal edge-pattern-solid edge-thickness-normal edge-pattern-solid flowchart-link" id="L_B_D_0" d="M1466.828,191L1454.995,195.167C1443.161,199.333,1419.495,207.667,1407.661,216C1395.828,224.333,1395.828,232.667,1395.828,241C1395.828,249.333,1395.828,257.667,1395.828,267.333C1395.828,277,1395.828,288,1395.828,293.5L1395.828,299"/><path marker-end="url(#my-svg_flowchart-v2-pointEnd)" style="" class="edge-thickness-normal edge-pattern-solid edge-thickness-normal edge-pattern-solid flowchart-link" id="L_B_E_0" d="M1620.188,191L1632.021,195.167C1643.854,199.333,1667.521,207.667,1679.354,216C1691.188,224.333,1691.188,232.667,1691.188,241C1691.188,249.333,1691.188,257.667,1691.188,265.333C1691.188,273,1691.188,280,1691.188,283.5L1691.188,287"/><path marker-end="url(#my-svg_flowchart-v2-pointEnd)" style="" class="edge-thickness-normal edge-pattern-solid edge-thickness-normal edge-pattern-solid flowchart-link" id="L_B_F_0" d="M1451.758,174.769L1393.21,181.641C1334.661,188.513,1217.565,202.256,1159.017,213.295C1100.469,224.333,1100.469,232.667,1100.469,241C1100.469,249.333,1100.469,257.667,1100.469,265.333C1100.469,273,1100.469,280,1100.469,283.5L1100.469,287"/><path marker-end="url(#my-svg_flowchart-v2-pointEnd)" style="" class="edge-thickness-normal edge-pattern-solid edge-thickness-normal edge-pattern-solid flowchart-link" id="L_B_G_0" d="M1635.258,174.424L1696.246,181.354C1757.234,188.283,1879.211,202.141,1940.199,213.237C2001.188,224.333,2001.188,232.667,2001.188,241C2001.188,249.333,2001.188,257.667,2001.188,265.333C2001.188,273,2001.188,280,2001.188,283.5L2001.188,287"/><path marker-end="url(#my-svg_flowchart-v2-pointEnd)" style="" class="edge-thickness-normal edge-pattern-solid edge-thickness-normal edge-pattern-solid flowchart-link" id="L_C_H_0" d="M2359.309,354.133L2323.515,360.777C2287.721,367.422,2216.134,380.711,2180.34,391.522C2144.547,402.333,2144.547,410.667,2144.547,419C2144.547,427.333,2144.547,435.667,2144.547,443.333C2144.547,451,2144.547,458,2144.547,461.5L2144.547,465"/><path marker-end="url(#my-svg_flowchart-v2-pointEnd)" style="" class="edge-thickness-normal edge-pattern-solid edge-thickness-normal edge-pattern-solid flowchart-link" id="L_C_I_0" d="M2419.28,369L2411.799,373.167C2404.317,377.333,2389.354,385.667,2381.872,394C2374.391,402.333,2374.391,410.667,2374.391,419C2374.391,427.333,2374.391,435.667,2374.391,443.333C2374.391,451,2374.391,458,2374.391,461.5L2374.391,465"/><path marker-end="url(#my-svg_flowchart-v2-pointEnd)" style="" class="edge-thickness-normal edge-pattern-solid edge-thickness-normal edge-pattern-solid flowchart-link" id="L_C_J_0" d="M2559.337,369L2566.818,373.167C2574.3,377.333,2589.263,385.667,2596.745,394C2604.227,402.333,2604.227,410.667,2604.227,419C2604.227,427.333,2604.227,435.667,2604.227,443.333C2604.227,451,2604.227,458,2604.227,461.5L2604.227,465"/><path marker-end="url(#my-svg_flowchart-v2-pointEnd)" style="" class="edge-thickness-normal edge-pattern-solid edge-thickness-normal edge-pattern-solid flowchart-link" id="L_C_K_0" d="M2619.309,353.893L2655.679,360.577C2692.049,367.262,2764.79,380.631,2801.161,391.482C2837.531,402.333,2837.531,410.667,2837.531,419C2837.531,427.333,2837.531,435.667,2837.531,443.333C2837.531,451,2837.531,458,2837.531,461.5L2837.531,465"/><path marker-end="url(#my-svg_flowchart-v2-pointEnd)" style="" class="edge-thickness-normal edge-pattern-solid edge-thickness-normal edge-pattern-solid flowchart-link" id="L_B_L_0" d="M1451.758,169.744L1328.626,177.454C1205.493,185.163,959.229,200.581,836.097,212.457C712.965,224.333,712.965,232.667,712.965,241C712.965,249.333,712.965,257.667,712.965,272.5C712.965,287.333,712.965,308.667,712.965,330C712.965,351.333,712.965,372.667,712.965,387.5C712.965,402.333,712.965,410.667,712.965,419C712.965,427.333,712.965,435.667,700.183,443.802C687.402,451.938,661.839,459.876,649.058,463.845L636.277,467.814"/><path marker-end="url(#my-svg_flowchart-v2-pointEnd)" style="" class="edge-thickness-normal edge-pattern-solid edge-thickness-normal edge-pattern-solid flowchart-link" id="L_F_L_0" d="M1100.469,369L1100.469,373.167C1100.469,377.333,1100.469,385.667,1100.469,394C1100.469,402.333,1100.469,410.667,1100.469,419C1100.469,427.333,1100.469,435.667,1023.569,447.039C946.669,458.411,792.869,472.822,715.969,480.028L639.068,487.233"/><path marker-end="url(#my-svg_flowchart-v2-pointEnd)" style="" class="edge-thickness-normal edge-pattern-solid edge-thickness-normal edge-pattern-solid flowchart-link" id="L_G_L_0" d="M2001.188,369L2001.188,373.167C2001.188,377.333,2001.188,385.667,2001.188,394C2001.188,402.333,2001.188,410.667,2001.188,419C2001.188,427.333,2001.188,435.667,1774.17,447.943C1547.153,460.219,1093.118,476.438,866.101,484.548L639.083,492.657"/><path marker-end="url(#my-svg_flowchart-v2-pointEnd)" style="" class="edge-thickness-normal edge-pattern-solid edge-thickness-normal edge-pattern-solid flowchart-link" id="L_L_M_0" d="M455.93,506.711L398.38,513.593C340.831,520.474,225.732,534.237,168.182,545.285C110.633,556.333,110.633,564.667,110.633,573C110.633,581.333,110.633,589.667,110.633,597.333C110.633,605,110.633,612,110.633,615.5L110.633,619"/><path marker-end="url(#my-svg_flowchart-v2-pointEnd)" style="" class="edge-thickness-normal edge-pattern-solid edge-thickness-normal edge-pattern-solid flowchart-link" id="L_L_N_0" d="M545.508,523L545.508,527.167C545.508,531.333,545.508,539.667,545.508,548C545.508,556.333,545.508,564.667,545.508,573C545.508,581.333,545.508,589.667,545.508,597.333C545.508,605,545.508,612,545.508,615.5L545.508,619"/><path marker-end="url(#my-svg_flowchart-v2-pointEnd)" style="" class="edge-thickness-normal edge-pattern-solid edge-thickness-normal edge-pattern-solid flowchart-link" id="L_L_O_0" d="M635.086,516.922L657.263,522.102C679.44,527.281,723.794,537.641,745.971,546.987C768.148,556.333,768.148,564.667,768.148,573C768.148,581.333,768.148,589.667,768.148,597.333C768.148,605,768.148,612,768.148,615.5L768.148,619"/><path marker-end="url(#my-svg_flowchart-v2-pointEnd)" style="" class="edge-thickness-normal edge-pattern-solid edge-thickness-normal edge-pattern-solid flowchart-link" id="L_L_P_0" d="M455.93,516.815L433.563,522.013C411.195,527.21,366.461,537.605,344.094,546.969C321.727,556.333,321.727,564.667,321.727,573C321.727,581.333,321.727,589.667,321.727,597.333C321.727,605,321.727,612,321.727,615.5L321.727,619"/><path marker-end="url(#my-svg_flowchart-v2-pointEnd)" style="" class="edge-thickness-normal edge-pattern-solid edge-thickness-normal edge-pattern-solid flowchart-link" id="L_P_Q_0" d="M321.727,677L321.727,681.167C321.727,685.333,321.727,693.667,321.727,702C321.727,710.333,321.727,718.667,321.727,726.333C321.727,734,321.727,741,321.727,744.5L321.727,748"/><path marker-end="url(#my-svg_flowchart-v2-pointEnd)" style="" class="edge-thickness-normal edge-pattern-solid edge-thickness-normal edge-pattern-solid flowchart-link" id="L_L_U_0" d="M635.086,509.31L678.483,515.759C721.88,522.207,808.674,535.103,852.072,545.718C895.469,556.333,895.469,564.667,895.469,573C895.469,581.333,895.469,589.667,895.469,602.5C895.469,615.333,895.469,632.667,895.469,650C895.469,667.333,895.469,684.667,895.469,697.5C895.469,710.333,895.469,718.667,1116.682,731.038C1337.895,743.408,1780.322,759.817,2001.535,768.021L2222.749,776.225"/><path marker-end="url(#my-svg_flowchart-v2-pointEnd)" style="" class="edge-thickness-normal edge-pattern-solid edge-thickness-normal edge-pattern-solid flowchart-link" id="L_N_S_0" d="M545.508,677L545.508,681.167C545.508,685.333,545.508,693.667,545.508,702C545.508,710.333,545.508,718.667,745.308,730.67C945.109,742.673,1344.71,758.346,1544.511,766.183L1744.312,774.019"/><path marker-end="url(#my-svg_flowchart-v2-pointEnd)" style="" class="edge-thickness-normal edge-pattern-solid edge-thickness-normal edge-pattern-solid flowchart-link" id="L_O_S_0" d="M715.54,677L707.421,681.167C699.303,685.333,683.065,693.667,674.947,702C666.828,710.333,666.828,718.667,846.409,730.586C1025.99,742.506,1385.151,758.012,1564.732,765.765L1744.312,773.518"/><path marker-end="url(#my-svg_flowchart-v2-pointEnd)" style="" class="edge-thickness-normal edge-pattern-solid edge-thickness-normal edge-pattern-solid flowchart-link" id="L_O_T_0" d="M796.01,677L800.31,681.167C804.61,685.333,813.209,693.667,817.509,702C821.809,710.333,821.809,718.667,1024.89,731.028C1227.971,743.389,1634.134,759.778,1837.215,767.972L2040.296,776.166"/></g><g class="edgeLabels"><g class="edgeLabel"><g transform="translate(0, 0)" class="label"><foreignObject height="0" width="0"><div style="display: table-cell; white-space: nowrap; line-height: 1.5; max-width: 200px; text-align: center;" class="labelBkg" xmlns="http://www.w3.org/1999/xhtml"><span class="edgeLabel"></span></div></foreignObject></g></g><g class="edgeLabel"><g transform="translate(0, 0)" class="label"><foreignObject height="0" width="0"><div style="display: table-cell; white-space: nowrap; line-height: 1.5; max-width: 200px; text-align: center;" class="labelBkg" xmlns="http://www.w3.org/1999/xhtml"><span class="edgeLabel"></span></div></foreignObject></g></g><g class="edgeLabel"><g transform="translate(0, 0)" class="label"><foreignObject height="0" width="0"><div style="display: table-cell; white-space: nowrap; line-height: 1.5; max-width: 200px; text-align: center;" class="labelBkg" xmlns="http://www.w3.org/1999/xhtml"><span class="edgeLabel"></span></div></foreignObject></g></g><g class="edgeLabel"><g transform="translate(0, 0)" class="label"><foreignObject height="0" width="0"><div style="display: table-cell; white-space: nowrap; line-height: 1.5; max-width: 200px; text-align: center;" class="labelBkg" xmlns="http://www.w3.org/1999/xhtml"><span class="edgeLabel"></span></div></foreignObject></g></g><g class="edgeLabel"><g transform="translate(0, 0)" class="label"><foreignObject height="0" width="0"><div style="display: table-cell; white-space: nowrap; line-height: 1.5; max-width: 200px; text-align: center;" class="labelBkg" xmlns="http://www.w3.org/1999/xhtml"><span class="edgeLabel"></span></div></foreignObject></g></g><g class="edgeLabel"><g transform="translate(0, 0)" class="label"><foreignObject height="0" width="0"><div style="display: table-cell; white-space: nowrap; line-height: 1.5; max-width: 200px; text-align: center;" class="labelBkg" xmlns="http://www.w3.org/1999/xhtml"><span class="edgeLabel"></span></div></foreignObject></g></g><g class="edgeLabel"><g transform="translate(0, 0)" class="label"><foreignObject height="0" width="0"><div style="display: table-cell; white-space: nowrap; line-height: 1.5; max-width: 200px; text-align: center;" class="labelBkg" xmlns="http://www.w3.org/1999/xhtml"><span class="edgeLabel"></span></div></foreignObject></g></g><g class="edgeLabel"><g transform="translate(0, 0)" class="label"><foreignObject height="0" width="0"><div style="display: table-cell; white-space: nowrap; line-height: 1.5; max-width: 200px; text-align: center;" class="labelBkg" xmlns="http://www.w3.org/1999/xhtml"><span class="edgeLabel"></span></div></foreignObject></g></g><g class="edgeLabel"><g transform="translate(0, 0)" class="label"><foreignObject height="0" width="0"><div style="display: table-cell; white-space: nowrap; line-height: 1.5; max-width: 200px; text-align: center;" class="labelBkg" xmlns="http://www.w3.org/1999/xhtml"><span class="edgeLabel"></span></div></foreignObject></g></g><g class="edgeLabel"><g transform="translate(0, 0)" class="label"><foreignObject height="0" width="0"><div style="display: table-cell; white-space: nowrap; line-height: 1.5; max-width: 200px; text-align: center;" class="labelBkg" xmlns="http://www.w3.org/1999/xhtml"><span class="edgeLabel"></span></div></foreignObject></g></g><g class="edgeLabel"><g transform="translate(0, 0)" class="label"><foreignObject height="0" width="0"><div style="display: table-cell; white-space: nowrap; line-height: 1.5; max-width: 200px; text-align: center;" class="labelBkg" xmlns="http://www.w3.org/1999/xhtml"><span class="edgeLabel"></span></div></foreignObject></g></g><g class="edgeLabel"><g transform="translate(0, 0)" class="label"><foreignObject height="0" width="0"><div style="display: table-cell; white-space: nowrap; line-height: 1.5; max-width: 200px; text-align: center;" class="labelBkg" xmlns="http://www.w3.org/1999/xhtml"><span class="edgeLabel"></span></div></foreignObject></g></g><g class="edgeLabel"><g transform="translate(0, 0)" class="label"><foreignObject height="0" width="0"><div style="display: table-cell; white-space: nowrap; line-height: 1.5; max-width: 200px; text-align: center;" class="labelBkg" xmlns="http://www.w3.org/1999/xhtml"><span class="edgeLabel"></span></div></foreignObject></g></g><g class="edgeLabel"><g transform="translate(0, 0)" class="label"><foreignObject height="0" width="0"><div style="display: table-cell; white-space: nowrap; line-height: 1.5; max-width: 200px; text-align: center;" class="labelBkg" xmlns="http://www.w3.org/1999/xhtml"><span class="edgeLabel"></span></div></foreignObject></g></g><g class="edgeLabel"><g transform="translate(0, 0)" class="label"><foreignObject height="0" width="0"><div style="display: table-cell; white-space: nowrap; line-height: 1.5; max-width: 200px; text-align: center;" class="labelBkg" xmlns="http://www.w3.org/1999/xhtml"><span class="edgeLabel"></span></div></foreignObject></g></g><g class="edgeLabel"><g transform="translate(0, 0)" class="label"><foreignObject height="0" width="0"><div style="display: table-cell; white-space: nowrap; line-height: 1.5; max-width: 200px; text-align: center;" class="labelBkg" xmlns="http://www.w3.org/1999/xhtml"><span class="edgeLabel"></span></div></foreignObject></g></g><g class="edgeLabel"><g transform="translate(0, 0)" class="label"><foreignObject height="0" width="0"><div style="display: table-cell; white-space: nowrap; line-height: 1.5; max-width: 200px; text-align: center;" class="labelBkg" xmlns="http://www.w3.org/1999/xhtml"><span class="edgeLabel"></span></div></foreignObject></g></g><g class="edgeLabel"><g transform="translate(0, 0)" class="label"><foreignObject height="0" width="0"><div style="display: table-cell; white-space: nowrap; line-height: 1.5; max-width: 200px; text-align: center;" class="labelBkg" xmlns="http://www.w3.org/1999/xhtml"><span class="edgeLabel"></span></div></foreignObject></g></g><g class="edgeLabel"><g transform="translate(0, 0)" class="label"><foreignObject height="0" width="0"><div style="display: table-cell; white-space: nowrap; line-height: 1.5; max-width: 200px; text-align: center;" class="labelBkg" xmlns="http://www.w3.org/1999/xhtml"><span class="edgeLabel"></span></div></foreignObject></g></g><g class="edgeLabel"><g transform="translate(0, 0)" class="label"><foreignObject height="0" width="0"><div style="display: table-cell; white-space: nowrap; line-height: 1.5; max-width: 200px; text-align: center;" class="labelBkg" xmlns="http://www.w3.org/1999/xhtml"><span class="edgeLabel"></span></div></foreignObject></g></g><g class="edgeLabel"><g transform="translate(0, 0)" class="label"><foreignObject height="0" width="0"><div style="display: table-cell; white-space: nowrap; line-height: 1.5; max-width: 200px; text-align: center;" class="labelBkg" xmlns="http://www.w3.org/1999/xhtml"><span class="edgeLabel"></span></div></foreignObject></g></g><g class="edgeLabel"><g transform="translate(0, 0)" class="label"><foreignObject height="0" width="0"><div style="display: table-cell; white-space: nowrap; line-height: 1.5; max-width: 200px; text-align: center;" class="labelBkg" xmlns="http://www.w3.org/1999/xhtml"><span class="edgeLabel"></span></div></foreignObject></g></g></g><g class="nodes"><g transform="translate(1543.5078125, 60)" id="flowchart-A-0" class="node default"><rect height="54" width="117.671875" y="-27" x="-58.8359375" style="fill:#e1f5fe !important" class="basic label-container"/><g transform="translate(-28.8359375, -12)" style="" class="label"><rect/><foreignObject height="24" width="57.671875"><div style="display: table-cell; white-space: nowrap; line-height: 1.5; max-width: 200px; text-align: center;" xmlns="http://www.w3.org/1999/xhtml"><span class="nodeLabel"><p>main.py</p></span></div></foreignObject></g></g><g transform="translate(1543.5078125, 164)" id="flowchart-B-2" class="node default"><rect height="54" width="183.5" y="-27" x="-91.75" style="" class="basic label-container"/><g transform="translate(-61.75, -12)" style="" class="label"><rect/><foreignObject height="24" width="123.5"><div style="display: table-cell; white-space: nowrap; line-height: 1.5; max-width: 200px; text-align: center;" xmlns="http://www.w3.org/1999/xhtml"><span class="nodeLabel"><p>MainWindowView</p></span></div></foreignObject></g></g><g transform="translate(2489.30859375, 330)" id="flowchart-C-4" class="node default"><rect height="78" width="260" y="-39" x="-130" style="" class="basic label-container"/><g transform="translate(-100, -24)" style="" class="label"><rect/><foreignObject height="48" width="200"><div style="display: table; white-space: break-spaces; line-height: 1.5; max-width: 200px; text-align: center; width: 200px;" xmlns="http://www.w3.org/1999/xhtml"><span class="nodeLabel"><p>Model Selection View/Presenter</p></span></div></foreignObject></g></g><g transform="translate(1395.828125, 330)" id="flowchart-D-6" class="node default"><rect height="54" width="230.71875" y="-27" x="-115.359375" style="" class="basic label-container"/><g transform="translate(-85.359375, -12)" style="" class="label"><rect/><foreignObject height="24" width="170.71875"><div style="display: table-cell; white-space: nowrap; line-height: 1.5; max-width: 200px; text-align: center;" xmlns="http://www.w3.org/1999/xhtml"><span class="nodeLabel"><p>File I/O View/Presenter</p></span></div></foreignObject></g></g><g transform="translate(1691.1875, 330)" id="flowchart-E-8" class="node default"><rect height="78" width="260" y="-39" x="-130" style="" class="basic label-container"/><g transform="translate(-100, -24)" style="" class="label"><rect/><foreignObject height="48" width="200"><div style="display: table; white-space: break-spaces; line-height: 1.5; max-width: 200px; text-align: center; width: 200px;" xmlns="http://www.w3.org/1999/xhtml"><span class="nodeLabel"><p>Processing Settings View/Presenter</p></span></div></foreignObject></g></g><g transform="translate(1100.46875, 330)" id="flowchart-F-10" class="node default"><rect height="78" width="260" y="-39" x="-130" style="" class="basic label-container"/><g transform="translate(-100, -24)" style="" class="label"><rect/><foreignObject height="48" width="200"><div style="display: table; white-space: break-spaces; line-height: 1.5; max-width: 200px; text-align: center; width: 200px;" xmlns="http://www.w3.org/1999/xhtml"><span class="nodeLabel"><p>Execution Control View/Presenter</p></span></div></foreignObject></g></g><g transform="translate(2001.1875, 330)" id="flowchart-G-12" class="node default"><rect height="78" width="260" y="-39" x="-130" style="" class="basic label-container"/><g transform="translate(-100, -24)" style="" class="label"><rect/><foreignObject height="48" width="200"><div style="display: table; white-space: break-spaces; line-height: 1.5; max-width: 200px; text-align: center; width: 200px;" xmlns="http://www.w3.org/1999/xhtml"><span class="nodeLabel"><p>Settings Dialog View/Presenter</p></span></div></foreignObject></g></g><g transform="translate(2144.546875, 496)" id="flowchart-H-13" class="node default"><rect height="54" width="176.71875" y="-27" x="-88.359375" style="" class="basic label-container"/><g transform="translate(-58.359375, -12)" style="" class="label"><rect/><foreignObject height="24" width="116.71875"><div style="display: table-cell; white-space: nowrap; line-height: 1.5; max-width: 200px; text-align: center;" xmlns="http://www.w3.org/1999/xhtml"><span class="nodeLabel"><p>VR Arch Settings</p></span></div></foreignObject></g></g><g transform="translate(2374.390625, 496)" id="flowchart-I-14" class="node default"><rect height="54" width="182.96875" y="-27" x="-91.484375" style="" class="basic label-container"/><g transform="translate(-61.484375, -12)" style="" class="label"><rect/><foreignObject height="24" width="122.96875"><div style="display: table-cell; white-space: nowrap; line-height: 1.5; max-width: 200px; text-align: center;" xmlns="http://www.w3.org/1999/xhtml"><span class="nodeLabel"><p>MDX-Net Settings</p></span></div></foreignObject></g></g><g transform="translate(2604.2265625, 496)" id="flowchart-J-15" class="node default"><rect height="54" width="176.703125" y="-27" x="-88.3515625" style="" class="basic label-container"/><g transform="translate(-58.3515625, -12)" style="" class="label"><rect/><foreignObject height="24" width="116.703125"><div style="display: table-cell; white-space: nowrap; line-height: 1.5; max-width: 200px; text-align: center;" xmlns="http://www.w3.org/1999/xhtml"><span class="nodeLabel"><p>Demucs Settings</p></span></div></foreignObject></g></g><g transform="translate(2837.53125, 496)" id="flowchart-K-16" class="node default"><rect height="54" width="189.90625" y="-27" x="-94.953125" style="" class="basic label-container"/><g transform="translate(-64.953125, -12)" style="" class="label"><rect/><foreignObject height="24" width="129.90625"><div style="display: table-cell; white-space: nowrap; line-height: 1.5; max-width: 200px; text-align: center;" xmlns="http://www.w3.org/1999/xhtml"><span class="nodeLabel"><p>Ensemble Settings</p></span></div></foreignObject></g></g><g transform="translate(545.5078125, 496)" id="flowchart-L-25" class="node default"><rect height="54" width="179.15625" y="-27" x="-89.578125" style="fill:#f3e5f5 !important" class="basic label-container"/><g transform="translate(-59.578125, -12)" style="" class="label"><rect/><foreignObject height="24" width="119.15625"><div style="display: table-cell; white-space: nowrap; line-height: 1.5; max-width: 200px; text-align: center;" xmlns="http://www.w3.org/1999/xhtml"><span class="nodeLabel"><p>UVRCoreAdapter</p></span></div></foreignObject></g></g><g transform="translate(110.6328125, 650)" id="flowchart-M-26" class="node default"><rect height="54" width="135.265625" y="-27" x="-67.6328125" style="" class="basic label-container"/><g transform="translate(-37.6328125, -12)" style="" class="label"><rect/><foreignObject height="24" width="75.265625"><div style="display: table-cell; white-space: nowrap; line-height: 1.5; max-width: 200px; text-align: center;" xmlns="http://www.w3.org/1999/xhtml"><span class="nodeLabel"><p>ModelData</p></span></div></foreignObject></g></g><g transform="translate(545.5078125, 650)" id="flowchart-N-27" class="node default"><rect height="54" width="160.640625" y="-27" x="-80.3203125" style="fill:#fff3e0 !important" class="basic label-container"/><g transform="translate(-50.3203125, -12)" style="" class="label"><rect/><foreignObject height="24" width="100.640625"><div style="display: table-cell; white-space: nowrap; line-height: 1.5; max-width: 200px; text-align: center;" xmlns="http://www.w3.org/1999/xhtml"><span class="nodeLabel"><p>SeparateLogic</p></span></div></foreignObject></g></g><g transform="translate(768.1484375, 650)" id="flowchart-O-28" class="node default"><rect height="54" width="184.640625" y="-27" x="-92.3203125" style="fill:#fff3e0 !important" class="basic label-container"/><g transform="translate(-62.3203125, -12)" style="" class="label"><rect/><foreignObject height="24" width="124.640625"><div style="display: table-cell; white-space: nowrap; line-height: 1.5; max-width: 200px; text-align: center;" xmlns="http://www.w3.org/1999/xhtml"><span class="nodeLabel"><p>ProcessingWorker</p></span></div></foreignObject></g></g><g transform="translate(321.7265625, 650)" id="flowchart-P-29" class="node default"><rect height="54" width="186.921875" y="-27" x="-93.4609375" style="" class="basic label-container"/><g transform="translate(-63.4609375, -12)" style="" class="label"><rect/><foreignObject height="24" width="126.921875"><div style="display: table-cell; white-space: nowrap; line-height: 1.5; max-width: 200px; text-align: center;" xmlns="http://www.w3.org/1999/xhtml"><span class="nodeLabel"><p>ModelDownloader</p></span></div></foreignObject></g></g><g transform="translate(321.7265625, 779)" id="flowchart-Q-30" class="node default"><rect height="54" width="180.390625" y="-27" x="-90.1953125" style="" class="basic label-container"/><g transform="translate(-60.1953125, -12)" style="" class="label"><rect/><foreignObject height="24" width="120.390625"><div style="display: table-cell; white-space: nowrap; line-height: 1.5; max-width: 200px; text-align: center;" xmlns="http://www.w3.org/1999/xhtml"><span class="nodeLabel"><p>DownloadWorker</p></span></div></foreignObject></g></g><g transform="translate(1617.41015625, 779)" id="flowchart-R-31" class="node default"><rect height="54" width="161.796875" y="-27" x="-80.8984375" style="" class="basic label-container"/><g transform="translate(-50.8984375, -12)" style="" class="label"><rect/><foreignObject height="24" width="101.796875"><div style="display: table-cell; white-space: nowrap; line-height: 1.5; max-width: 200px; text-align: center;" xmlns="http://www.w3.org/1999/xhtml"><span class="nodeLabel"><p>Qt Framework</p></span></div></foreignObject></g></g><g transform="translate(1871.30078125, 779)" id="flowchart-S-32" class="node default"><rect height="54" width="245.984375" y="-27" x="-122.9921875" style="" class="basic label-container"/><g transform="translate(-92.9921875, -12)" style="" class="label"><rect/><foreignObject height="24" width="185.984375"><div style="display: table-cell; white-space: nowrap; line-height: 1.5; max-width: 200px; text-align: center;" xmlns="http://www.w3.org/1999/xhtml"><span class="nodeLabel"><p>Audio Processing Libraries</p></span></div></foreignObject></g></g><g transform="translate(2110.51953125, 779)" id="flowchart-T-33" class="node default"><rect height="54" width="132.453125" y="-27" x="-66.2265625" style="" class="basic label-container"/><g transform="translate(-36.2265625, -12)" style="" class="label"><rect/><foreignObject height="24" width="72.453125"><div style="display: table-cell; white-space: nowrap; line-height: 1.5; max-width: 200px; text-align: center;" xmlns="http://www.w3.org/1999/xhtml"><span class="nodeLabel"><p>ML Models</p></span></div></foreignObject></g></g><g transform="translate(2297.56640625, 779)" id="flowchart-U-34" class="node default"><rect height="54" width="141.640625" y="-27" x="-70.8203125" style="" class="basic label-container"/><g transform="translate(-40.8203125, -12)" style="" class="label"><rect/><foreignObject height="24" width="81.640625"><div style="display: table-cell; white-space: nowrap; line-height: 1.5; max-width: 200px; text-align: center;" xmlns="http://www.w3.org/1999/xhtml"><span class="nodeLabel"><p>File System</p></span></div></foreignObject></g></g></g></g></g></svg>