<svg aria-roledescription="class" role="graphics-document document" viewBox="0 0 1179.015625 956" style="max-width: 1179.02px; background-color: white;" class="classDiagram" xmlns:xlink="http://www.w3.org/1999/xlink" xmlns="http://www.w3.org/2000/svg" width="100%" id="my-svg"><style>#my-svg{font-family:"trebuchet ms",verdana,arial,sans-serif;font-size:16px;fill:#333;}@keyframes edge-animation-frame{from{stroke-dashoffset:0;}}@keyframes dash{to{stroke-dashoffset:0;}}#my-svg .edge-animation-slow{stroke-dasharray:9,5!important;stroke-dashoffset:900;animation:dash 50s linear infinite;stroke-linecap:round;}#my-svg .edge-animation-fast{stroke-dasharray:9,5!important;stroke-dashoffset:900;animation:dash 20s linear infinite;stroke-linecap:round;}#my-svg .error-icon{fill:#552222;}#my-svg .error-text{fill:#552222;stroke:#552222;}#my-svg .edge-thickness-normal{stroke-width:1px;}#my-svg .edge-thickness-thick{stroke-width:3.5px;}#my-svg .edge-pattern-solid{stroke-dasharray:0;}#my-svg .edge-thickness-invisible{stroke-width:0;fill:none;}#my-svg .edge-pattern-dashed{stroke-dasharray:3;}#my-svg .edge-pattern-dotted{stroke-dasharray:2;}#my-svg .marker{fill:#333333;stroke:#333333;}#my-svg .marker.cross{stroke:#333333;}#my-svg svg{font-family:"trebuchet ms",verdana,arial,sans-serif;font-size:16px;}#my-svg p{margin:0;}#my-svg g.classGroup text{fill:#9370DB;stroke:none;font-family:"trebuchet ms",verdana,arial,sans-serif;font-size:10px;}#my-svg g.classGroup text .title{font-weight:bolder;}#my-svg .nodeLabel,#my-svg .edgeLabel{color:#131300;}#my-svg .edgeLabel .label rect{fill:#ECECFF;}#my-svg .label text{fill:#131300;}#my-svg .labelBkg{background:#ECECFF;}#my-svg .edgeLabel .label span{background:#ECECFF;}#my-svg .classTitle{font-weight:bolder;}#my-svg .node rect,#my-svg .node circle,#my-svg .node ellipse,#my-svg .node polygon,#my-svg .node path{fill:#ECECFF;stroke:#9370DB;stroke-width:1px;}#my-svg .divider{stroke:#9370DB;stroke-width:1;}#my-svg g.clickable{cursor:pointer;}#my-svg g.classGroup rect{fill:#ECECFF;stroke:#9370DB;}#my-svg g.classGroup line{stroke:#9370DB;stroke-width:1;}#my-svg .classLabel .box{stroke:none;stroke-width:0;fill:#ECECFF;opacity:0.5;}#my-svg .classLabel .label{fill:#9370DB;font-size:10px;}#my-svg .relation{stroke:#333333;stroke-width:1;fill:none;}#my-svg .dashed-line{stroke-dasharray:3;}#my-svg .dotted-line{stroke-dasharray:1 2;}#my-svg #compositionStart,#my-svg .composition{fill:#333333!important;stroke:#333333!important;stroke-width:1;}#my-svg #compositionEnd,#my-svg .composition{fill:#333333!important;stroke:#333333!important;stroke-width:1;}#my-svg #dependencyStart,#my-svg .dependency{fill:#333333!important;stroke:#333333!important;stroke-width:1;}#my-svg #dependencyStart,#my-svg .dependency{fill:#333333!important;stroke:#333333!important;stroke-width:1;}#my-svg #extensionStart,#my-svg .extension{fill:transparent!important;stroke:#333333!important;stroke-width:1;}#my-svg #extensionEnd,#my-svg .extension{fill:transparent!important;stroke:#333333!important;stroke-width:1;}#my-svg #aggregationStart,#my-svg .aggregation{fill:transparent!important;stroke:#333333!important;stroke-width:1;}#my-svg #aggregationEnd,#my-svg .aggregation{fill:transparent!important;stroke:#333333!important;stroke-width:1;}#my-svg #lollipopStart,#my-svg .lollipop{fill:#ECECFF!important;stroke:#333333!important;stroke-width:1;}#my-svg #lollipopEnd,#my-svg .lollipop{fill:#ECECFF!important;stroke:#333333!important;stroke-width:1;}#my-svg .edgeTerminals{font-size:11px;line-height:initial;}#my-svg .classTitleText{text-anchor:middle;font-size:18px;fill:#333;}#my-svg :root{--mermaid-font-family:"trebuchet ms",verdana,arial,sans-serif;}</style><g><defs><marker orient="auto" markerHeight="240" markerWidth="190" refY="7" refX="18" class="marker aggregation class" id="my-svg_class-aggregationStart"><path d="M 18,7 L9,13 L1,7 L9,1 Z"/></marker></defs><defs><marker orient="auto" markerHeight="28" markerWidth="20" refY="7" refX="1" class="marker aggregation class" id="my-svg_class-aggregationEnd"><path d="M 18,7 L9,13 L1,7 L9,1 Z"/></marker></defs><defs><marker orient="auto" markerHeight="240" markerWidth="190" refY="7" refX="18" class="marker extension class" id="my-svg_class-extensionStart"><path d="M 1,7 L18,13 V 1 Z"/></marker></defs><defs><marker orient="auto" markerHeight="28" markerWidth="20" refY="7" refX="1" class="marker extension class" id="my-svg_class-extensionEnd"><path d="M 1,1 V 13 L18,7 Z"/></marker></defs><defs><marker orient="auto" markerHeight="240" markerWidth="190" refY="7" refX="18" class="marker composition class" id="my-svg_class-compositionStart"><path d="M 18,7 L9,13 L1,7 L9,1 Z"/></marker></defs><defs><marker orient="auto" markerHeight="28" markerWidth="20" refY="7" refX="1" class="marker composition class" id="my-svg_class-compositionEnd"><path d="M 18,7 L9,13 L1,7 L9,1 Z"/></marker></defs><defs><marker orient="auto" markerHeight="240" markerWidth="190" refY="7" refX="6" class="marker dependency class" id="my-svg_class-dependencyStart"><path d="M 5,7 L9,13 L1,7 L9,1 Z"/></marker></defs><defs><marker orient="auto" markerHeight="28" markerWidth="20" refY="7" refX="13" class="marker dependency class" id="my-svg_class-dependencyEnd"><path d="M 18,7 L9,13 L14,7 L9,1 Z"/></marker></defs><defs><marker orient="auto" markerHeight="240" markerWidth="190" refY="7" refX="13" class="marker lollipop class" id="my-svg_class-lollipopStart"><circle r="6" cy="7" cx="7" fill="transparent" stroke="black"/></marker></defs><defs><marker orient="auto" markerHeight="240" markerWidth="190" refY="7" refX="1" class="marker lollipop class" id="my-svg_class-lollipopEnd"><circle r="6" cy="7" cx="7" fill="transparent" stroke="black"/></marker></defs><g class="root"><g class="clusters"/><g class="edgePaths"><path style=";" class="edge-thickness-normal edge-pattern-solid relation" id="id_MainWindowView_ModelSelectionPresenter_1" d="M303.66,252.429L288.47,259.858C273.28,267.286,242.9,282.143,227.71,293.738C212.52,305.333,212.52,313.667,212.52,317.833L212.52,322"/><path style=";" class="edge-thickness-normal edge-pattern-solid relation" id="id_MainWindowView_ExecutionControlPresenter_2" d="M763.465,218.2L802.076,231.333C840.688,244.466,917.91,270.733,956.521,288.033C995.133,305.333,995.133,313.667,995.133,317.833L995.133,322"/><path style=";" class="edge-thickness-normal edge-pattern-solid relation" id="id_MainWindowView_UVRCoreAdapter_3" d="M525.155,272L524.889,276.167C524.624,280.333,524.093,288.667,523.828,317C523.563,345.333,523.563,393.667,523.563,442C523.563,490.333,523.563,538.667,525.538,567C527.514,595.333,531.466,603.667,533.442,607.833L535.418,612"/><path style=";" class="edge-thickness-normal edge-pattern-solid relation" id="id_ModelSelectionPresenter_ModelSelectionView_4" d="M212.52,562L212.52,566.167C212.52,570.333,212.52,578.667,212.52,595C212.52,611.333,212.52,635.667,212.52,647.833L212.52,660"/><path style=";" class="edge-thickness-normal edge-pattern-solid relation" id="id_ModelSelectionPresenter_UVRCoreAdapter_5" d="M417.039,515.666L450.047,527.555C483.055,539.444,549.07,563.222,582.078,579.278C615.086,595.333,615.086,603.667,615.086,607.833L615.086,612"/><path style=";" class="edge-thickness-normal edge-pattern-solid relation" id="id_ExecutionControlPresenter_ExecutionControlView_6" d="M1003.409,562L1003.696,566.167C1003.983,570.333,1004.558,578.667,1004.845,597C1005.133,615.333,1005.133,643.667,1005.133,657.833L1005.133,672"/><path style=";" class="edge-thickness-normal edge-pattern-solid relation" id="id_ExecutionControlPresenter_UVRCoreAdapter_7" d="M842.01,562L836.693,566.167C831.376,570.333,820.743,578.667,811.216,587C801.689,595.333,793.268,603.667,789.058,607.833L784.847,612"/></g><g class="edgeLabels"><g class="edgeLabel"><g transform="translate(0, -12)" class="label"><foreignObject height="24" width="0"><div class="labelBkg" xmlns="http://www.w3.org/1999/xhtml" style="display: table-cell; white-space: nowrap; line-height: 1.5; max-width: 200px; text-align: center;"><span class="edgeLabel" style=";display: inline-block"></span></div></foreignObject></g></g><g class="edgeLabel"><g transform="translate(0, -12)" class="label"><foreignObject height="24" width="0"><div class="labelBkg" xmlns="http://www.w3.org/1999/xhtml" style="display: table-cell; white-space: nowrap; line-height: 1.5; max-width: 200px; text-align: center;"><span class="edgeLabel" style=";display: inline-block"></span></div></foreignObject></g></g><g class="edgeLabel"><g transform="translate(0, -12)" class="label"><foreignObject height="24" width="0"><div class="labelBkg" xmlns="http://www.w3.org/1999/xhtml" style="display: table-cell; white-space: nowrap; line-height: 1.5; max-width: 200px; text-align: center;"><span class="edgeLabel" style=";display: inline-block"></span></div></foreignObject></g></g><g class="edgeLabel"><g transform="translate(0, -12)" class="label"><foreignObject height="24" width="0"><div class="labelBkg" xmlns="http://www.w3.org/1999/xhtml" style="display: table-cell; white-space: nowrap; line-height: 1.5; max-width: 200px; text-align: center;"><span class="edgeLabel" style=";display: inline-block"></span></div></foreignObject></g></g><g class="edgeLabel"><g transform="translate(0, -12)" class="label"><foreignObject height="24" width="0"><div class="labelBkg" xmlns="http://www.w3.org/1999/xhtml" style="display: table-cell; white-space: nowrap; line-height: 1.5; max-width: 200px; text-align: center;"><span class="edgeLabel" style=";display: inline-block"></span></div></foreignObject></g></g><g class="edgeLabel"><g transform="translate(0, -12)" class="label"><foreignObject height="24" width="0"><div class="labelBkg" xmlns="http://www.w3.org/1999/xhtml" style="display: table-cell; white-space: nowrap; line-height: 1.5; max-width: 200px; text-align: center;"><span class="edgeLabel" style=";display: inline-block"></span></div></foreignObject></g></g><g class="edgeLabel"><g transform="translate(0, -12)" class="label"><foreignObject height="24" width="0"><div class="labelBkg" xmlns="http://www.w3.org/1999/xhtml" style="display: table-cell; white-space: nowrap; line-height: 1.5; max-width: 200px; text-align: center;"><span class="edgeLabel" style=";display: inline-block"></span></div></foreignObject></g></g><g transform="translate(281.34961497929737, 246.64237000433135)" class="edgeTerminals"><g transform="translate(0, 0)" class="inner"><foreignObject style="width: 9px; height: 12px;"><div xmlns="http://www.w3.org/1999/xhtml" style="display: inline-block; padding-right: 1px; white-space: nowrap;"><span style=";display: inline-block" class="edgeLabel">1</span></div></foreignObject></g></g><g transform="translate(775.2022761692899, 238.03611430969747)" class="edgeTerminals"><g transform="translate(0, 0)" class="inner"><foreignObject style="width: 9px; height: 12px;"><div xmlns="http://www.w3.org/1999/xhtml" style="display: inline-block; padding-right: 1px; white-space: nowrap;"><span style=";display: inline-block" class="edgeLabel">1</span></div></foreignObject></g></g><g transform="translate(509.37422326435603, 288.79195046193433)" class="edgeTerminals"><g transform="translate(0, 0)" class="inner"><foreignObject style="width: 9px; height: 12px;"><div xmlns="http://www.w3.org/1999/xhtml" style="display: inline-block; padding-right: 1px; white-space: nowrap;"><span style=";display: inline-block" class="edgeLabel">1</span></div></foreignObject></g></g><g transform="translate(197.51953062500002, 579.4999994642857)" class="edgeTerminals"><g transform="translate(0, 0)" class="inner"><foreignObject style="width: 9px; height: 12px;"><div xmlns="http://www.w3.org/1999/xhtml" style="display: inline-block; padding-right: 1px; white-space: nowrap;"><span style=";display: inline-block" class="edgeLabel">1</span></div></foreignObject></g></g><g transform="translate(428.42044857305564, 535.7084960504527)" class="edgeTerminals"><g transform="translate(0, 0)" class="inner"><foreignObject style="width: 9px; height: 12px;"><div xmlns="http://www.w3.org/1999/xhtml" style="display: inline-block; padding-right: 1px; white-space: nowrap;"><span style=";display: inline-block" class="edgeLabel">1</span></div></foreignObject></g></g><g transform="translate(989.2889707700217, 580.2095814579118)" class="edgeTerminals"><g transform="translate(0, 0)" class="inner"><foreignObject style="width: 9px; height: 12px;"><div xmlns="http://www.w3.org/1999/xhtml" style="display: inline-block; padding-right: 1px; white-space: nowrap;"><span style=";display: inline-block" class="edgeLabel">1</span></div></foreignObject></g></g><g transform="translate(818.9833266298575, 560.9881709165193)" class="edgeTerminals"><g transform="translate(0, 0)" class="inner"><foreignObject style="width: 9px; height: 12px;"><div xmlns="http://www.w3.org/1999/xhtml" style="display: inline-block; padding-right: 1px; white-space: nowrap;"><span style=";display: inline-block" class="edgeLabel">1</span></div></foreignObject></g></g><g transform="translate(226.35618711779742, 306.6876524354679)" class="edgeTerminals"><g transform="translate(0, 0)" class="inner"/><foreignObject style="width: 36px; height: 12px;"><div xmlns="http://www.w3.org/1999/xhtml" style="display: inline-block; padding-right: 1px; white-space: nowrap;"><span style=";display: inline-block" class="edgeLabel">1..*</span></div></foreignObject></g><g transform="translate(999.6202229002492, 298.11900342130195)" class="edgeTerminals"><g transform="translate(0, 0)" class="inner"/><foreignObject style="width: 9px; height: 12px;"><div xmlns="http://www.w3.org/1999/xhtml" style="display: inline-block; padding-right: 1px; white-space: nowrap;"><span style=";display: inline-block" class="edgeLabel">1</span></div></foreignObject></g><g transform="translate(538.5732567279493, 585.6702694861342)" class="edgeTerminals"><g transform="translate(0, 0)" class="inner"/><foreignObject style="width: 9px; height: 12px;"><div xmlns="http://www.w3.org/1999/xhtml" style="display: inline-block; padding-right: 1px; white-space: nowrap;"><span style=";display: inline-block" class="edgeLabel">1</span></div></foreignObject></g><g transform="translate(222.51953062500002, 637.4999994642857)" class="edgeTerminals"><g transform="translate(0, 0)" class="inner"/><foreignObject style="width: 9px; height: 12px;"><div xmlns="http://www.w3.org/1999/xhtml" style="display: inline-block; padding-right: 1px; white-space: nowrap;"><span style=";display: inline-block" class="edgeLabel">1</span></div></foreignObject></g><g transform="translate(619.6202296701733, 588.0868590433626)" class="edgeTerminals"><g transform="translate(0, 0)" class="inner"/><foreignObject style="width: 9px; height: 12px;"><div xmlns="http://www.w3.org/1999/xhtml" style="display: inline-block; padding-right: 1px; white-space: nowrap;"><span style=";display: inline-block" class="edgeLabel">1</span></div></foreignObject></g><g transform="translate(1015.13281125, 649.4999989285714)" class="edgeTerminals"><g transform="translate(0, 0)" class="inner"/><foreignObject style="width: 9px; height: 12px;"><div xmlns="http://www.w3.org/1999/xhtml" style="display: inline-block; padding-right: 1px; white-space: nowrap;"><span style=";display: inline-block" class="edgeLabel">1</span></div></foreignObject></g><g transform="translate(802.8371472790959, 605.3520985680648)" class="edgeTerminals"><g transform="translate(0, 0)" class="inner"/><foreignObject style="width: 9px; height: 12px;"><div xmlns="http://www.w3.org/1999/xhtml" style="display: inline-block; padding-right: 1px; white-space: nowrap;"><span style=";display: inline-block" class="edgeLabel">1</span></div></foreignObject></g></g><g class="nodes"><g transform="translate(533.5625, 140)" id="classId-MainWindowView-0" class="node default"><g class="basic label-container"><path style="" fill="#ECECFF" stroke-width="0" stroke="none" d="M-229.90234375 -132 L229.90234375 -132 L229.90234375 132 L-229.90234375 132"/><path style="" fill="none" stroke-width="1.3" stroke="#9370DB" d="M-229.90234375 -132 C-52.88045029010996 -132, 124.14144316978008 -132, 229.90234375 -132 M-229.90234375 -132 C-63.35432734908929 -132, 103.19368905182142 -132, 229.90234375 -132 M229.90234375 -132 C229.90234375 -74.60804604980046, 229.90234375 -17.216092099600914, 229.90234375 132 M229.90234375 -132 C229.90234375 -78.67522303906898, 229.90234375 -25.35044607813795, 229.90234375 132 M229.90234375 132 C107.4638128325546 132, -14.97471808489081 132, -229.90234375 132 M229.90234375 132 C52.61383732330512 132, -124.67466910338976 132, -229.90234375 132 M-229.90234375 132 C-229.90234375 44.229877886311954, -229.90234375 -43.54024422737609, -229.90234375 -132 M-229.90234375 132 C-229.90234375 32.90333781711837, -229.90234375 -66.19332436576326, -229.90234375 -132"/></g><g transform="translate(0, -108)" class="annotation-group text"/><g transform="translate(-65.0390625, -108)" class="label-group text"><g transform="translate(0,-12)" style="font-weight: bolder" class="label"><foreignObject height="24" width="130.078125"><div style="display: table-cell; white-space: nowrap; line-height: 1.5; max-width: 172px; text-align: center;" xmlns="http://www.w3.org/1999/xhtml"><span style="" class="nodeLabel markdown-node-label"><p>MainWindowView</p></span></div></foreignObject></g></g><g transform="translate(-217.90234375, -60)" class="members-group text"><g transform="translate(0,-12)" style="" class="label"><foreignObject height="24" width="119.890625"><div style="display: table-cell; white-space: nowrap; line-height: 1.5; max-width: 157px; text-align: center;" xmlns="http://www.w3.org/1999/xhtml"><span style="" class="nodeLabel markdown-node-label"><p>-presenters: dict</p></span></div></foreignObject></g><g transform="translate(0,12)" style="" class="label"><foreignObject height="24" width="191.65625"><div style="display: table-cell; white-space: nowrap; line-height: 1.5; max-width: 232px; text-align: center;" xmlns="http://www.w3.org/1999/xhtml"><span style="" class="nodeLabel markdown-node-label"><p>-adapter: UVRCoreAdapter</p></span></div></foreignObject></g><g transform="translate(0,36)" style="" class="label"><foreignObject height="24" width="370.765625"><div style="display: table-cell; white-space: nowrap; line-height: 1.5; max-width: 386px; text-align: center;" xmlns="http://www.w3.org/1999/xhtml"><span style="" class="nodeLabel markdown-node-label"><p>-settings_dialog_presenter: SettingsDialogPresenter</p></span></div></foreignObject></g></g><g transform="translate(-217.90234375, 36)" class="methods-group text"><g transform="translate(0,-12)" style="" class="label"><foreignObject height="24" width="45.484375"><div style="display: table-cell; white-space: nowrap; line-height: 1.5; max-width: 127px; text-align: center;" xmlns="http://www.w3.org/1999/xhtml"><span style="" class="nodeLabel markdown-node-label"><p>+<strong>init</strong>()</p></span></div></foreignObject></g><g transform="translate(0,12)" style="" class="label"><foreignObject height="24" width="175.546875"><div style="display: table-cell; white-space: nowrap; line-height: 1.5; max-width: 215px; text-align: center;" xmlns="http://www.w3.org/1999/xhtml"><span style="" class="nodeLabel markdown-node-label"><p>+show_status_message()</p></span></div></foreignObject></g><g transform="translate(0,36)" style="" class="label"><foreignObject height="24" width="154.6875"><div style="display: table-cell; white-space: nowrap; line-height: 1.5; max-width: 192px; text-align: center;" xmlns="http://www.w3.org/1999/xhtml"><span style="" class="nodeLabel markdown-node-label"><p>+_create_menu_bar()</p></span></div></foreignObject></g><g transform="translate(0,60)" style="" class="label"><foreignObject height="24" width="227.796875"><div style="display: table-cell; white-space: nowrap; line-height: 1.5; max-width: 259px; text-align: center;" xmlns="http://www.w3.org/1999/xhtml"><span style="" class="nodeLabel markdown-node-label"><p>+_open_download_center_tab()</p></span></div></foreignObject></g></g><g style="" class="divider"><path style="" fill="none" stroke-width="1.3" stroke="#9370DB" d="M-229.90234375 -84 C-120.88030701319845 -84, -11.858270276396894 -84, 229.90234375 -84 M-229.90234375 -84 C-60.88646903560834 -84, 108.12940567878331 -84, 229.90234375 -84"/></g><g style="" class="divider"><path style="" fill="none" stroke-width="1.3" stroke="#9370DB" d="M-229.90234375 12 C-83.15955044466344 12, 63.583242860673124 12, 229.90234375 12 M-229.90234375 12 C-70.00292903333175 12, 89.8964856833365 12, 229.90234375 12"/></g></g><g transform="translate(212.51953125, 780)" id="classId-ModelSelectionView-1" class="node default"><g class="basic label-container"><path style="" fill="#ECECFF" stroke-width="0" stroke="none" d="M-166.7421875 -120 L166.7421875 -120 L166.7421875 120 L-166.7421875 120"/><path style="" fill="none" stroke-width="1.3" stroke="#9370DB" d="M-166.7421875 -120 C-50.52188764609481 -120, 65.69841220781038 -120, 166.7421875 -120 M-166.7421875 -120 C-74.72478659842572 -120, 17.292614303148554 -120, 166.7421875 -120 M166.7421875 -120 C166.7421875 -26.809103354719753, 166.7421875 66.3817932905605, 166.7421875 120 M166.7421875 -120 C166.7421875 -35.085127551540396, 166.7421875 49.82974489691921, 166.7421875 120 M166.7421875 120 C43.171813058644986 120, -80.39856138271003 120, -166.7421875 120 M166.7421875 120 C42.3948825532012 120, -81.9524223935976 120, -166.7421875 120 M-166.7421875 120 C-166.7421875 56.05818999184932, -166.7421875 -7.883620016301364, -166.7421875 -120 M-166.7421875 120 C-166.7421875 41.64232385375675, -166.7421875 -36.7153522924865, -166.7421875 -120"/></g><g transform="translate(0, -96)" class="annotation-group text"/><g transform="translate(-74.71875, -96)" class="label-group text"><g transform="translate(0,-12)" style="font-weight: bolder" class="label"><foreignObject height="24" width="149.4375"><div style="display: table-cell; white-space: nowrap; line-height: 1.5; max-width: 185px; text-align: center;" xmlns="http://www.w3.org/1999/xhtml"><span style="" class="nodeLabel markdown-node-label"><p>ModelSelectionView</p></span></div></foreignObject></g></g><g transform="translate(-154.7421875, -48)" class="members-group text"><g transform="translate(0,-12)" style="" class="label"><foreignObject height="24" width="212.25"><div style="display: table-cell; white-space: nowrap; line-height: 1.5; max-width: 253px; text-align: center;" xmlns="http://www.w3.org/1999/xhtml"><span style="" class="nodeLabel markdown-node-label"><p>-method_combo: QComboBox</p></span></div></foreignObject></g><g transform="translate(0,12)" style="" class="label"><foreignObject height="24" width="201.890625"><div style="display: table-cell; white-space: nowrap; line-height: 1.5; max-width: 245px; text-align: center;" xmlns="http://www.w3.org/1999/xhtml"><span style="" class="nodeLabel markdown-node-label"><p>-model_combo: QComboBox</p></span></div></foreignObject></g><g transform="translate(0,36)" style="" class="label"><foreignObject height="24" width="234.765625"><div style="display: table-cell; white-space: nowrap; line-height: 1.5; max-width: 267px; text-align: center;" xmlns="http://www.w3.org/1999/xhtml"><span style="" class="nodeLabel markdown-node-label"><p>-settings_stack: QStackedWidget</p></span></div></foreignObject></g></g><g transform="translate(-154.7421875, 48)" class="methods-group text"><g transform="translate(0,-12)" style="" class="label"><foreignObject height="24" width="158.375"><div style="display: table-cell; white-space: nowrap; line-height: 1.5; max-width: 197px; text-align: center;" xmlns="http://www.w3.org/1999/xhtml"><span style="" class="nodeLabel markdown-node-label"><p>+add_settings_panel()</p></span></div></foreignObject></g><g transform="translate(0,12)" style="" class="label"><foreignObject height="24" width="175.171875"><div style="display: table-cell; white-space: nowrap; line-height: 1.5; max-width: 209px; text-align: center;" xmlns="http://www.w3.org/1999/xhtml"><span style="" class="nodeLabel markdown-node-label"><p>+get_selected_method()</p></span></div></foreignObject></g><g transform="translate(0,36)" style="" class="label"><foreignObject height="24" width="164.8125"><div style="display: table-cell; white-space: nowrap; line-height: 1.5; max-width: 201px; text-align: center;" xmlns="http://www.w3.org/1999/xhtml"><span style="" class="nodeLabel markdown-node-label"><p>+get_selected_model()</p></span></div></foreignObject></g></g><g style="" class="divider"><path style="" fill="none" stroke-width="1.3" stroke="#9370DB" d="M-166.7421875 -72 C-43.21843750907075 -72, 80.3053124818585 -72, 166.7421875 -72 M-166.7421875 -72 C-86.39717615902644 -72, -6.052164818052887 -72, 166.7421875 -72"/></g><g style="" class="divider"><path style="" fill="none" stroke-width="1.3" stroke="#9370DB" d="M-166.7421875 24 C-52.11829514984318 24, 62.505597200313645 24, 166.7421875 24 M-166.7421875 24 C-79.23013705104427 24, 8.281913397911467 24, 166.7421875 24"/></g></g><g transform="translate(212.51953125, 442)" id="classId-ModelSelectionPresenter-2" class="node default"><g class="basic label-container"><path style="" fill="#ECECFF" stroke-width="0" stroke="none" d="M-204.51953125 -120 L204.51953125 -120 L204.51953125 120 L-204.51953125 120"/><path style="" fill="none" stroke-width="1.3" stroke="#9370DB" d="M-204.51953125 -120 C-116.71647083365765 -120, -28.913410417315305 -120, 204.51953125 -120 M-204.51953125 -120 C-65.48656246126356 -120, 73.54640632747288 -120, 204.51953125 -120 M204.51953125 -120 C204.51953125 -61.508182713004935, 204.51953125 -3.0163654260098696, 204.51953125 120 M204.51953125 -120 C204.51953125 -27.228993462186807, 204.51953125 65.54201307562639, 204.51953125 120 M204.51953125 120 C46.20502782140085 120, -112.1094756071983 120, -204.51953125 120 M204.51953125 120 C97.92578035539043 120, -8.66797053921914 120, -204.51953125 120 M-204.51953125 120 C-204.51953125 67.81806875165026, -204.51953125 15.636137503300503, -204.51953125 -120 M-204.51953125 120 C-204.51953125 47.46529388206099, -204.51953125 -25.06941223587802, -204.51953125 -120"/></g><g transform="translate(0, -96)" class="annotation-group text"/><g transform="translate(-93.3046875, -96)" class="label-group text"><g transform="translate(0,-12)" style="font-weight: bolder" class="label"><foreignObject height="24" width="186.609375"><div style="display: table-cell; white-space: nowrap; line-height: 1.5; max-width: 211px; text-align: center;" xmlns="http://www.w3.org/1999/xhtml"><span style="" class="nodeLabel markdown-node-label"><p>ModelSelectionPresenter</p></span></div></foreignObject></g></g><g transform="translate(-192.51953125, -48)" class="members-group text"><g transform="translate(0,-12)" style="" class="label"><foreignObject height="24" width="192.234375"><div style="display: table-cell; white-space: nowrap; line-height: 1.5; max-width: 234px; text-align: center;" xmlns="http://www.w3.org/1999/xhtml"><span style="" class="nodeLabel markdown-node-label"><p>-view: ModelSelectionView</p></span></div></foreignObject></g><g transform="translate(0,12)" style="" class="label"><foreignObject height="24" width="191.65625"><div style="display: table-cell; white-space: nowrap; line-height: 1.5; max-width: 232px; text-align: center;" xmlns="http://www.w3.org/1999/xhtml"><span style="" class="nodeLabel markdown-node-label"><p>-adapter: UVRCoreAdapter</p></span></div></foreignObject></g><g transform="translate(0,36)" style="" class="label"><foreignObject height="24" width="291.734375"><div style="display: table-cell; white-space: nowrap; line-height: 1.5; max-width: 319px; text-align: center;" xmlns="http://www.w3.org/1999/xhtml"><span style="" class="nodeLabel markdown-node-label"><p>+request_show_download_center: Signal</p></span></div></foreignObject></g></g><g transform="translate(-192.51953125, 48)" class="methods-group text"><g transform="translate(0,-12)" style="" class="label"><foreignObject height="24" width="190.34375"><div style="display: table-cell; white-space: nowrap; line-height: 1.5; max-width: 226px; text-align: center;" xmlns="http://www.w3.org/1999/xhtml"><span style="" class="nodeLabel markdown-node-label"><p>+handle_method_change()</p></span></div></foreignObject></g><g transform="translate(0,12)" style="" class="label"><foreignObject height="24" width="179.96875"><div style="display: table-cell; white-space: nowrap; line-height: 1.5; max-width: 218px; text-align: center;" xmlns="http://www.w3.org/1999/xhtml"><span style="" class="nodeLabel markdown-node-label"><p>+handle_model_change()</p></span></div></foreignObject></g><g transform="translate(0,36)" style="" class="label"><foreignObject height="24" width="130.265625"><div style="display: table-cell; white-space: nowrap; line-height: 1.5; max-width: 173px; text-align: center;" xmlns="http://www.w3.org/1999/xhtml"><span style="" class="nodeLabel markdown-node-label"><p>+refresh_models()</p></span></div></foreignObject></g></g><g style="" class="divider"><path style="" fill="none" stroke-width="1.3" stroke="#9370DB" d="M-204.51953125 -72 C-91.32908295030803 -72, 21.86136534938393 -72, 204.51953125 -72 M-204.51953125 -72 C-43.61235760670337 -72, 117.29481603659326 -72, 204.51953125 -72"/></g><g style="" class="divider"><path style="" fill="none" stroke-width="1.3" stroke="#9370DB" d="M-204.51953125 24 C-46.44817523657588 24, 111.62318077684824 24, 204.51953125 24 M-204.51953125 24 C-101.08973623358044 24, 2.3400587828391224 24, 204.51953125 24"/></g></g><g transform="translate(1005.1328125, 780)" id="classId-ExecutionControlView-3" class="node default"><g class="basic label-container"><path style="" fill="#ECECFF" stroke-width="0" stroke="none" d="M-154.22265625 -108 L154.22265625 -108 L154.22265625 108 L-154.22265625 108"/><path style="" fill="none" stroke-width="1.3" stroke="#9370DB" d="M-154.22265625 -108 C-65.52275725341413 -108, 23.177141743171745 -108, 154.22265625 -108 M-154.22265625 -108 C-52.15483842077887 -108, 49.912979408442254 -108, 154.22265625 -108 M154.22265625 -108 C154.22265625 -43.678939032866566, 154.22265625 20.642121934266868, 154.22265625 108 M154.22265625 -108 C154.22265625 -25.80112182830237, 154.22265625 56.39775634339526, 154.22265625 108 M154.22265625 108 C32.0054005306165 108, -90.211855188767 108, -154.22265625 108 M154.22265625 108 C66.91833054629248 108, -20.38599515741504 108, -154.22265625 108 M-154.22265625 108 C-154.22265625 34.15433837019802, -154.22265625 -39.69132325960396, -154.22265625 -108 M-154.22265625 108 C-154.22265625 62.307274095734705, -154.22265625 16.61454819146941, -154.22265625 -108"/></g><g transform="translate(0, -84)" class="annotation-group text"/><g transform="translate(-82.8984375, -84)" class="label-group text"><g transform="translate(0,-12)" style="font-weight: bolder" class="label"><foreignObject height="24" width="165.796875"><div style="display: table-cell; white-space: nowrap; line-height: 1.5; max-width: 197px; text-align: center;" xmlns="http://www.w3.org/1999/xhtml"><span style="" class="nodeLabel markdown-node-label"><p>ExecutionControlView</p></span></div></foreignObject></g></g><g transform="translate(-142.22265625, -36)" class="members-group text"><g transform="translate(0,-12)" style="" class="label"><foreignObject height="24" width="197.9375"><div style="display: table-cell; white-space: nowrap; line-height: 1.5; max-width: 231px; text-align: center;" xmlns="http://www.w3.org/1999/xhtml"><span style="" class="nodeLabel markdown-node-label"><p>-start_button: QPushButton</p></span></div></foreignObject></g><g transform="translate(0,12)" style="" class="label"><foreignObject height="24" width="194.46875"><div style="display: table-cell; white-space: nowrap; line-height: 1.5; max-width: 230px; text-align: center;" xmlns="http://www.w3.org/1999/xhtml"><span style="" class="nodeLabel markdown-node-label"><p>-stop_button: QPushButton</p></span></div></foreignObject></g><g transform="translate(0,36)" style="" class="label"><foreignObject height="24" width="201.546875"><div style="display: table-cell; white-space: nowrap; line-height: 1.5; max-width: 241px; text-align: center;" xmlns="http://www.w3.org/1999/xhtml"><span style="" class="nodeLabel markdown-node-label"><p>-progress_bar: QProgressBar</p></span></div></foreignObject></g></g><g transform="translate(-142.22265625, 60)" class="methods-group text"><g transform="translate(0,-12)" style="" class="label"><foreignObject height="24" width="138.234375"><div style="display: table-cell; white-space: nowrap; line-height: 1.5; max-width: 179px; text-align: center;" xmlns="http://www.w3.org/1999/xhtml"><span style="" class="nodeLabel markdown-node-label"><p>+update_progress()</p></span></div></foreignObject></g><g transform="translate(0,12)" style="" class="label"><foreignObject height="24" width="169.421875"><div style="display: table-cell; white-space: nowrap; line-height: 1.5; max-width: 206px; text-align: center;" xmlns="http://www.w3.org/1999/xhtml"><span style="" class="nodeLabel markdown-node-label"><p>+set_processing_state()</p></span></div></foreignObject></g></g><g style="" class="divider"><path style="" fill="none" stroke-width="1.3" stroke="#9370DB" d="M-154.22265625 -60 C-63.11259641578849 -60, 27.997463418423024 -60, 154.22265625 -60 M-154.22265625 -60 C-90.06274456192425 -60, -25.902832873848496 -60, 154.22265625 -60"/></g><g style="" class="divider"><path style="" fill="none" stroke-width="1.3" stroke="#9370DB" d="M-154.22265625 36 C-90.78087782215776 36, -27.339099394315525 36, 154.22265625 36 M-154.22265625 36 C-57.63678449245823 36, 38.949087265083534 36, 154.22265625 36"/></g></g><g transform="translate(995.1328125, 442)" id="classId-ExecutionControlPresenter-4" class="node default"><g class="basic label-container"><path style="" fill="#ECECFF" stroke-width="0" stroke="none" d="M-175.8828125 -120 L175.8828125 -120 L175.8828125 120 L-175.8828125 120"/><path style="" fill="none" stroke-width="1.3" stroke="#9370DB" d="M-175.8828125 -120 C-103.1960186557592 -120, -30.509224811518408 -120, 175.8828125 -120 M-175.8828125 -120 C-50.92742501222432 -120, 74.02796247555136 -120, 175.8828125 -120 M175.8828125 -120 C175.8828125 -29.962054384110786, 175.8828125 60.07589123177843, 175.8828125 120 M175.8828125 -120 C175.8828125 -41.55420749024361, 175.8828125 36.891585019512775, 175.8828125 120 M175.8828125 120 C37.47244669719885 120, -100.9379191056023 120, -175.8828125 120 M175.8828125 120 C79.57116653491805 120, -16.7404794301639 120, -175.8828125 120 M-175.8828125 120 C-175.8828125 65.95403558614957, -175.8828125 11.908071172299145, -175.8828125 -120 M-175.8828125 120 C-175.8828125 38.26626254639149, -175.8828125 -43.467474907217024, -175.8828125 -120"/></g><g transform="translate(0, -96)" class="annotation-group text"/><g transform="translate(-101.484375, -96)" class="label-group text"><g transform="translate(0,-12)" style="font-weight: bolder" class="label"><foreignObject height="24" width="202.96875"><div style="display: table-cell; white-space: nowrap; line-height: 1.5; max-width: 223px; text-align: center;" xmlns="http://www.w3.org/1999/xhtml"><span style="" class="nodeLabel markdown-node-label"><p>ExecutionControlPresenter</p></span></div></foreignObject></g></g><g transform="translate(-163.8828125, -48)" class="members-group text"><g transform="translate(0,-12)" style="" class="label"><foreignObject height="24" width="206.890625"><div style="display: table-cell; white-space: nowrap; line-height: 1.5; max-width: 247px; text-align: center;" xmlns="http://www.w3.org/1999/xhtml"><span style="" class="nodeLabel markdown-node-label"><p>-view: ExecutionControlView</p></span></div></foreignObject></g><g transform="translate(0,12)" style="" class="label"><foreignObject height="24" width="226.28125"><div style="display: table-cell; white-space: nowrap; line-height: 1.5; max-width: 257px; text-align: center;" xmlns="http://www.w3.org/1999/xhtml"><span style="" class="nodeLabel markdown-node-label"><p>-main_window_presenters: dict</p></span></div></foreignObject></g><g transform="translate(0,36)" style="" class="label"><foreignObject height="24" width="191.65625"><div style="display: table-cell; white-space: nowrap; line-height: 1.5; max-width: 232px; text-align: center;" xmlns="http://www.w3.org/1999/xhtml"><span style="" class="nodeLabel markdown-node-label"><p>-adapter: UVRCoreAdapter</p></span></div></foreignObject></g></g><g transform="translate(-163.8828125, 48)" class="methods-group text"><g transform="translate(0,-12)" style="" class="label"><foreignObject height="24" width="136.984375"><div style="display: table-cell; white-space: nowrap; line-height: 1.5; max-width: 178px; text-align: center;" xmlns="http://www.w3.org/1999/xhtml"><span style="" class="nodeLabel markdown-node-label"><p>+start_processing()</p></span></div></foreignObject></g><g transform="translate(0,12)" style="" class="label"><foreignObject height="24" width="133.515625"><div style="display: table-cell; white-space: nowrap; line-height: 1.5; max-width: 177px; text-align: center;" xmlns="http://www.w3.org/1999/xhtml"><span style="" class="nodeLabel markdown-node-label"><p>+stop_processing()</p></span></div></foreignObject></g><g transform="translate(0,36)" style="" class="label"><foreignObject height="24" width="172.859375"><div style="display: table-cell; white-space: nowrap; line-height: 1.5; max-width: 211px; text-align: center;" xmlns="http://www.w3.org/1999/xhtml"><span style="" class="nodeLabel markdown-node-label"><p>+on_progress_updated()</p></span></div></foreignObject></g></g><g style="" class="divider"><path style="" fill="none" stroke-width="1.3" stroke="#9370DB" d="M-175.8828125 -72 C-81.70513179014226 -72, 12.472548919715479 -72, 175.8828125 -72 M-175.8828125 -72 C-43.36895404325446 -72, 89.14490441349108 -72, 175.8828125 -72"/></g><g style="" class="divider"><path style="" fill="none" stroke-width="1.3" stroke="#9370DB" d="M-175.8828125 24 C-73.04396244750998 24, 29.794887604980033 24, 175.8828125 24 M-175.8828125 24 C-65.89226509654306 24, 44.09828230691389 24, 175.8828125 24"/></g></g><g transform="translate(615.0859375, 780)" id="classId-UVRCoreAdapter-5" class="node default"><g class="basic label-container"><path style="" fill="#ECECFF" stroke-width="0" stroke="none" d="M-185.82421875 -168 L185.82421875 -168 L185.82421875 168 L-185.82421875 168"/><path style="" fill="none" stroke-width="1.3" stroke="#9370DB" d="M-185.82421875 -168 C-72.52945945207345 -168, 40.76529984585309 -168, 185.82421875 -168 M-185.82421875 -168 C-94.98014518220248 -168, -4.136071614404955 -168, 185.82421875 -168 M185.82421875 -168 C185.82421875 -39.95559643388842, 185.82421875 88.08880713222317, 185.82421875 168 M185.82421875 -168 C185.82421875 -62.884757675851304, 185.82421875 42.23048464829739, 185.82421875 168 M185.82421875 168 C88.08500616989363 168, -9.654206410212737 168, -185.82421875 168 M185.82421875 168 C48.710031383876355 168, -88.40415598224729 168, -185.82421875 168 M-185.82421875 168 C-185.82421875 49.697968754419094, -185.82421875 -68.60406249116181, -185.82421875 -168 M-185.82421875 168 C-185.82421875 94.18855216789922, -185.82421875 20.377104335798435, -185.82421875 -168"/></g><g transform="translate(0, -144)" class="annotation-group text"/><g transform="translate(-62.5390625, -144)" class="label-group text"><g transform="translate(0,-12)" style="font-weight: bolder" class="label"><foreignObject height="24" width="125.078125"><div style="display: table-cell; white-space: nowrap; line-height: 1.5; max-width: 167px; text-align: center;" xmlns="http://www.w3.org/1999/xhtml"><span style="" class="nodeLabel markdown-node-label"><p>UVRCoreAdapter</p></span></div></foreignObject></g></g><g transform="translate(-173.82421875, -96)" class="members-group text"><g transform="translate(0,-12)" style="" class="label"><foreignObject height="24" width="188.25"><div style="display: table-cell; white-space: nowrap; line-height: 1.5; max-width: 226px; text-align: center;" xmlns="http://www.w3.org/1999/xhtml"><span style="" class="nodeLabel markdown-node-label"><p>+progress_updated: Signal</p></span></div></foreignObject></g><g transform="translate(0,12)" style="" class="label"><foreignObject height="24" width="200.9375"><div style="display: table-cell; white-space: nowrap; line-height: 1.5; max-width: 241px; text-align: center;" xmlns="http://www.w3.org/1999/xhtml"><span style="" class="nodeLabel markdown-node-label"><p>+processing_finished: Signal</p></span></div></foreignObject></g><g transform="translate(0,36)" style="" class="label"><foreignObject height="24" width="198.0625"><div style="display: table-cell; white-space: nowrap; line-height: 1.5; max-width: 238px; text-align: center;" xmlns="http://www.w3.org/1999/xhtml"><span style="" class="nodeLabel markdown-node-label"><p>+download_progress: Signal</p></span></div></foreignObject></g><g transform="translate(0,60)" style="" class="label"><foreignObject height="24" width="267.15625"><div style="display: table-cell; white-space: nowrap; line-height: 1.5; max-width: 299px; text-align: center;" xmlns="http://www.w3.org/1999/xhtml"><span style="" class="nodeLabel markdown-node-label"><p>+model_download_completed: Signal</p></span></div></foreignObject></g><g transform="translate(0,84)" style="" class="label"><foreignObject height="24" width="271.1875"><div style="display: table-cell; white-space: nowrap; line-height: 1.5; max-width: 299px; text-align: center;" xmlns="http://www.w3.org/1999/xhtml"><span style="" class="nodeLabel markdown-node-label"><p>-processing_thread: ProcessingThread</p></span></div></foreignObject></g><g transform="translate(0,108)" style="" class="label"><foreignObject height="24" width="285.109375"><div style="display: table-cell; white-space: nowrap; line-height: 1.5; max-width: 318px; text-align: center;" xmlns="http://www.w3.org/1999/xhtml"><span style="" class="nodeLabel markdown-node-label"><p>-download_manager: DownloadManager</p></span></div></foreignObject></g></g><g transform="translate(-173.82421875, 72)" class="methods-group text"><g transform="translate(0,-12)" style="" class="label"><foreignObject height="24" width="185.796875"><div style="display: table-cell; white-space: nowrap; line-height: 1.5; max-width: 222px; text-align: center;" xmlns="http://www.w3.org/1999/xhtml"><span style="" class="nodeLabel markdown-node-label"><p>+get_available_methods()</p></span></div></foreignObject></g><g transform="translate(0,12)" style="" class="label"><foreignObject height="24" width="175.421875"><div style="display: table-cell; white-space: nowrap; line-height: 1.5; max-width: 214px; text-align: center;" xmlns="http://www.w3.org/1999/xhtml"><span style="" class="nodeLabel markdown-node-label"><p>+get_available_models()</p></span></div></foreignObject></g><g transform="translate(0,36)" style="" class="label"><foreignObject height="24" width="136.984375"><div style="display: table-cell; white-space: nowrap; line-height: 1.5; max-width: 178px; text-align: center;" xmlns="http://www.w3.org/1999/xhtml"><span style="" class="nodeLabel markdown-node-label"><p>+start_processing()</p></span></div></foreignObject></g><g transform="translate(0,60)" style="" class="label"><foreignObject height="24" width="141.53125"><div style="display: table-cell; white-space: nowrap; line-height: 1.5; max-width: 185px; text-align: center;" xmlns="http://www.w3.org/1999/xhtml"><span style="" class="nodeLabel markdown-node-label"><p>+download_model()</p></span></div></foreignObject></g></g><g style="" class="divider"><path style="" fill="none" stroke-width="1.3" stroke="#9370DB" d="M-185.82421875 -120 C-48.415963690719906 -120, 88.99229136856019 -120, 185.82421875 -120 M-185.82421875 -120 C-50.52103776823617 -120, 84.78214321352766 -120, 185.82421875 -120"/></g><g style="" class="divider"><path style="" fill="none" stroke-width="1.3" stroke="#9370DB" d="M-185.82421875 48 C-77.41877615746547 48, 30.986666435069054 48, 185.82421875 48 M-185.82421875 48 C-42.19048268625727 48, 101.44325337748546 48, 185.82421875 48"/></g></g></g></g></g></svg>