<svg aria-roledescription="class" role="graphics-document document" viewBox="0 0 1179.015625 956" style="max-width: 1179.02px; background-color: white;" class="classDiagram" xmlns:xlink="http://www.w3.org/1999/xlink" xmlns="http://www.w3.org/2000/svg" width="100%" id="my-svg"><style>#my-svg{font-family:"trebuchet ms",verdana,arial,sans-serif;font-size:16px;fill:#333;}@keyframes edge-animation-frame{from{stroke-dashoffset:0;}}@keyframes dash{to{stroke-dashoffset:0;}}#my-svg .edge-animation-slow{stroke-dasharray:9,5!important;stroke-dashoffset:900;animation:dash 50s linear infinite;stroke-linecap:round;}#my-svg .edge-animation-fast{stroke-dasharray:9,5!important;stroke-dashoffset:900;animation:dash 20s linear infinite;stroke-linecap:round;}#my-svg .error-icon{fill:#552222;}#my-svg .error-text{fill:#552222;stroke:#552222;}#my-svg .edge-thickness-normal{stroke-width:1px;}#my-svg .edge-thickness-thick{stroke-width:3.5px;}#my-svg .edge-pattern-solid{stroke-dasharray:0;}#my-svg .edge-thickness-invisible{stroke-width:0;fill:none;}#my-svg .edge-pattern-dashed{stroke-dasharray:3;}#my-svg .edge-pattern-dotted{stroke-dasharray:2;}#my-svg .marker{fill:#333333;stroke:#333333;}#my-svg .marker.cross{stroke:#333333;}#my-svg svg{font-family:"trebuchet ms",verdana,arial,sans-serif;font-size:16px;}#my-svg p{margin:0;}#my-svg g.classGroup text{fill:#9370DB;stroke:none;font-family:"trebuchet ms",verdana,arial,sans-serif;font-size:10px;}#my-svg g.classGroup text .title{font-weight:bolder;}#my-svg .nodeLabel,#my-svg .edgeLabel{color:#131300;}#my-svg .edgeLabel .label rect{fill:#ECECFF;}#my-svg .label text{fill:#131300;}#my-svg .labelBkg{background:#ECECFF;}#my-svg .edgeLabel .label span{background:#ECECFF;}#my-svg .classTitle{font-weight:bolder;}#my-svg .node rect,#my-svg .node circle,#my-svg .node ellipse,#my-svg .node polygon,#my-svg .node path{fill:#ECECFF;stroke:#9370DB;stroke-width:1px;}#my-svg .divider{stroke:#9370DB;stroke-width:1;}#my-svg g.clickable{cursor:pointer;}#my-svg g.classGroup rect{fill:#ECECFF;stroke:#9370DB;}#my-svg g.classGroup line{stroke:#9370DB;stroke-width:1;}#my-svg .classLabel .box{stroke:none;stroke-width:0;fill:#ECECFF;opacity:0.5;}#my-svg .classLabel .label{fill:#9370DB;font-size:10px;}#my-svg .relation{stroke:#333333;stroke-width:1;fill:none;}#my-svg .dashed-line{stroke-dasharray:3;}#my-svg .dotted-line{stroke-dasharray:1 2;}#my-svg #compositionStart,#my-svg .composition{fill:#333333!important;stroke:#333333!important;stroke-width:1;}#my-svg #compositionEnd,#my-svg .composition{fill:#333333!important;stroke:#333333!important;stroke-width:1;}#my-svg #dependencyStart,#my-svg .dependency{fill:#333333!important;stroke:#333333!important;stroke-width:1;}#my-svg #dependencyStart,#my-svg .dependency{fill:#333333!important;stroke:#333333!important;stroke-width:1;}#my-svg #extensionStart,#my-svg .extension{fill:transparent!important;stroke:#333333!important;stroke-width:1;}#my-svg #extensionEnd,#my-svg .extension{fill:transparent!important;stroke:#333333!important;stroke-width:1;}#my-svg #aggregationStart,#my-svg .aggregation{fill:transparent!important;stroke:#333333!important;stroke-width:1;}#my-svg #aggregationEnd,#my-svg .aggregation{fill:transparent!important;stroke:#333333!important;stroke-width:1;}#my-svg #lollipopStart,#my-svg .lollipop{fill:#ECECFF!important;stroke:#333333!important;stroke-width:1;}#my-svg #lollipopEnd,#my-svg .lollipop{fill:#ECECFF!important;stroke:#333333!important;stroke-width:1;}#my-svg .edgeTerminals{font-size:11px;line-height:initial;}#my-svg .classTitleText{text-anchor:middle;font-size:18px;fill:#333;}#my-svg :root{--mermaid-font-family:"trebuchet ms",verdana,arial,sans-serif;}</style><g><defs><marker orient="auto" markerHeight="240" markerWidth="190" refY="7" refX="18" class="marker aggregation class" id="my-svg_class-aggregationStart"><path d="M 18,7 L9,13 L1,7 L9,1 Z"/></marker></defs><defs><marker orient="auto" markerHeight="28" markerWidth="20" refY="7" refX="1" class="marker aggregation class" id="my-svg_class-aggregationEnd"><path d="M 18,7 L9,13 L1,7 L9,1 Z"/></marker></defs><defs><marker orient="auto" markerHeight="240" markerWidth="190" refY="7" refX="18" class="marker extension class" id="my-svg_class-extensionStart"><path d="M 1,7 L18,13 V 1 Z"/></marker></defs><defs><marker orient="auto" markerHeight="28" markerWidth="20" refY="7" refX="1" class="marker extension class" id="my-svg_class-extensionEnd"><path d="M 1,1 V 13 L18,7 Z"/></marker></defs><defs><marker orient="auto" markerHeight="240" markerWidth="190" refY="7" refX="18" class="marker composition class" id="my-svg_class-compositionStart"><path d="M 18,7 L9,13 L1,7 L9,1 Z"/></marker></defs><defs><marker orient="auto" markerHeight="28" markerWidth="20" refY="7" refX="1" class="marker composition class" id="my-svg_class-compositionEnd"><path d="M 18,7 L9,13 L1,7 L9,1 Z"/></marker></defs><defs><marker orient="auto" markerHeight="240" markerWidth="190" refY="7" refX="6" class="marker dependency class" id="my-svg_class-dependencyStart"><path d="M 5,7 L9,13 L1,7 L9,1 Z"/></marker></defs><defs><marker orient="auto" markerHeight="28" markerWidth="20" refY="7" refX="13" class="marker dependency class" id="my-svg_class-dependencyEnd"><path d="M 18,7 L9,13 L14,7 L9,1 Z"/></marker></defs><defs><marker orient="auto" markerHeight="240" markerWidth="190" refY="7" refX="13" class="marker lollipop class" id="my-svg_class-lollipopStart"><circle r="6" cy="7" cx="7" fill="transparent" stroke="black"/></marker></defs><defs><marker orient="auto" markerHeight="240" markerWidth="190" refY="7" refX="1" class="marker lollipop class" id="my-svg_class-lollipopEnd"><circle r="6" cy="7" cx="7" fill="transparent" stroke="black"/></marker></defs><g class="root"><g class="clusters"/><g class="edgePaths"><path style=";" class="edge-thickness-normal edge-pattern-solid relation" id="id_MainWindowView_ModelSelectionPresenter_1" d="M303.66,252.429L288.47,259.858C273.28,267.286,242.9,282.143,227.71,293.738C212.52,305.333,212.52,313.667,212.52,317.833L212.52,322"/><path style=";" class="edge-thickness-normal edge-pattern-solid relation" id="id_MainWindowView_ExecutionControlPresenter_2" d="M763.465,218.2L802.076,231.333C840.688,244.466,917.91,270.733,956.521,288.033C995.133,305.333,995.133,313.667,995.133,317.833L995.133,322"/><path style=";" class="edge-thickness-normal edge-pattern-solid relation" id="id_MainWindowView_UVRCoreAdapter_3" d="M525.155,272L524.889,276.167C524.624,280.333,524.093,288.667,523.828,317C523.563,345.333,523.563,393.667,523.563,442C523.563,490.333,523.563,538.667,525.538,567C527.514,595.333,531.466,603.667,533.442,607.833L535.418,612"/><path style=";" class="edge-thickness-normal edge-pattern-solid relation" id="id_ModelSelectionPresenter_ModelSelectionView_4" d="M212.52,562L212.52,566.167C212.52,570.333,212.52,578.667,212.52,595C212.52,611.333,212.52,635.667,212.52,647.833L212.52,660"/><path style=";" class="edge-thickness-normal edge-pattern-solid relation" id="id_ModelSelectionPresenter_UVRCoreAdapter_5" d="M417.039,515.666L450.047,527.555C483.055,539.444,549.07,563.222,582.078,579.278C615.086,595.333,615.086,603.667,615.086,607.833L615.086,612"/><path style=";" class="edge-thickness-normal edge-pattern-solid relation" id="id_ExecutionControlPresenter_ExecutionControlView_6" d="M1003.409,562L1003.696,566.167C1003.983,570.333,1004.558,578.667,1004.845,597C1005.133,615.333,1005.133,643.667,1005.133,657.833L1005.133,672"/><path style=";" class="edge-thickness-normal edge-pattern-solid relation" id="id_ExecutionControlPresenter_UVRCoreAdapter_7" d="M842.01,562L836.693,566.167C831.376,570.333,820.743,578.667,811.216,587C801.689,595.333,793.268,603.667,789.058,607.833L784.847,612"/></g><g class="edgeLabels"><g class="edgeLabel"><g transform="translate(0, -12)" class="label"><foreignObject height="24" width="0"><div class="labelBkg" xmlns="http://www.w3.org/1999/xhtml" style="display: table-cell; white-space: nowrap; line-height: 1.5; max-width: 200px; text-align: center;"><span class="edgeLabel" style=";display: inline-block"></span></div></foreignObject></g></g><g class="edgeLabel"><g transform="translate(0, -12)" class="label"><foreignObject height="24" width="0"><div class="labelBkg" xmlns="http://www.w3.org/1999/xhtml" style="display: table-cell; white-space: nowrap; line-height: 1.5; max-width: 200px; text-align: center;"><span class="edgeLabel" style=";display: inline-block"></span></div></foreignObject></g></g><g class="edgeLabel"><g transform="translate(0, -12)" class="label"><foreignObject height="24" width="0"><div class="labelBkg" xmlns="http://www.w3.org/1999/xhtml" style="display: table-cell; white-space: nowrap; line-height: 1.5; max-width: 200px; text-align: center;"><span class="edgeLabel" style=";display: inline-block"></span></div></foreignObject></g></g><g class="edgeLabel"><g transform="translate(0, -12)" class="label"><foreignObject height="24" width="0"><div class="labelBkg" xmlns="http://www.w3.org/1999/xhtml" style="display: table-cell; white-space: nowrap; line-height: 1.5; max-width: 200px; text-align: center;"><span class="edgeLabel" style=";display: inline-block"></span></div></foreignObject></g></g><g class="edgeLabel"><g transform="translate(0, -12)" class="label"><foreignObject height="24" width="0"><div class="labelBkg" xmlns="http://www.w3.org/1999/xhtml" style="display: table-cell; white-space: nowrap; line-height: 1.5; max-width: 200px; text-align: center;"><span class="edgeLabel" style=";display: inline-block"></span></div></foreignObject></g></g><g class="edgeLabel"><g transform="translate(0, -12)" class="label"><foreignObject height="24" width="0"><div class="labelBkg" xmlns="http://www.w3.org/1999/xhtml" style="display: table-cell; white-space: nowrap; line-height: 1.5; max-width: 200px; text-align: center;"><span class="edgeLabel" style=";display: inline-block"></span></div></foreignObject></g></g><g class="edgeLabel"><g transform="translate(0, -12)" class="label"><foreignObject height="24" width="0"><div class="labelBkg" xmlns="http://www.w3.org/1999/xhtml" style="display: table-cell; white-space: nowrap; line-height: 1.5; max-width: 200px; text-align: center;"><span class="edgeLabel" style=";display: inline-block"></span></div></foreignObject></g></g><g transform="translate(281.34961497929737, 246.64237000433135)" class="edgeTerminals"><g transform="translate(0, 0)" class="inner"><foreignObject style="width: 9px; height: 12px;"><div xmlns="http://www.w3.org/1999/xhtml" style="display: inline-block; padding-right: 1px; white-space: nowrap;"><span style=";display: inline-block" class="edgeLabel">1</span></div></foreignObject></g></g><g transform="translate(775.2022761692899, 238.03611430969747)" class="edgeTerminals"><g transform="translate(0, 0)" class="inner"><foreignObject style="width: 9px; height: 12px;"><div xmlns="http://www.w3.org/1999/xhtml" style="display: inline-block; padding-right: 1px; white-space: nowrap;"><span style=";display: inline-block" class="edgeLabel">1</span></div></foreignObject></g></g><g transform="translate(509.37422326435603, 288.79195046193433)" class="edgeTerminals"><g transform="translate(0, 0)" class="inner"><foreignObject style="width: 9px; height: 12px;"><div xmlns="http://www.w3.org/1999/xhtml" style="display: inline-block; padding-right: 1px; white-space: nowrap;"><span style=";display: inline-block" class="edgeLabel">1</span></div></foreignObject></g></g><g transform="translate(197.51953062500002, 579.4999994642857)" class="edgeTerminals"><g transform="translate(0, 0)" class="inner"><foreignObject style="width: 9px; height: 12px;"><div xmlns="http://www.w3.org/1999/xhtml" style="display: inline-block; padding-right: 1px; white-space: nowrap;"><span style=";display: inline-block" class="edgeLabel">1</span></div></foreignObject></g></g><g transform="translate(428.42044857305564, 535.7084960504527)" class="edgeTerminals"><g transform="translate(0, 0)" class="inner"><foreignObject style="width: 9px; height: 12px;"><div xmlns="http://www.w3.org/1999/xhtml" style="display: inline-block; padding-right: 1px; white-space: nowrap;"><span style=";display: inline-block" class="edgeLabel">1</span></div></foreignObject></g></g><g transform="translate(989.2889707700217, 580.2095814579118)" class="edgeTerminals"><g transform="translate(0, 0)" class="inner"><foreignObject style="width: 9px; height: 12px;"><div xmlns="http://www.w3.org/1999/xhtml" style="display: inline-block; padding-right: 1px; white-space: nowrap;"><span style=";display: inline-block" class="edgeLabel">1</span></div></foreignObject></g></g><g transform="translate(818.9833266298575, 560.9881709165193)" class="edgeTerminals"><g transform="translate(0, 0)" class="inner"><foreignObject style="width: 9px; height: 12px;"><div xmlns="http://www.w3.org/1999/xhtml" style="display: inline-block; padding-right: 1px; white-space: nowrap;"><span style=";display: inline-block" class="edgeLabel">1</span></div></foreignObject></g></g><g transform="translate(226.35618711779742, 306.6876524354679)" class="edgeTerminals"><g transform="translate(0, 0)" class="inner"/><foreignObject style="width: 36px; height: 12px;"><div xmlns="http://www.w3.org/1999/xhtml" style="display: inline-block; padding-right: 1px; white-space: nowrap;"><span style=";display: inline-block" class="edgeLabel">1..*</span></div></foreignObject></g><g transform="translate(999.6202229002492, 298.11900342130195)" class="edgeTerminals"><g transform="translate(0, 0)" class="inner"/><foreignObject style="width: 9px; height: 12px;"><div xmlns="http://www.w3.org/1999/xhtml" style="display: inline-block; padding-right: 1px; white-space: nowrap;"><span style=";display: inline-block" class="edgeLabel">1</span></div></foreignObject></g><g transform="translate(538.5732567279493, 585.6702694861342)" class="edgeTerminals"><g transform="translate(0, 0)" class="inner"/><foreignObject style="width: 9px; height: 12px;"><div xmlns="http://www.w3.org/1999/xhtml" style="display: inline-block; padding-right: 1px; white-space: nowrap;"><span style=";display: inline-block" class="edgeLabel">1</span></div></foreignObject></g><g transform="translate(222.51953062500002, 637.4999994642857)" class="edgeTerminals"><g transform="translate(0, 0)" class="inner"/><foreignObject style="width: 9px; height: 12px;"><div xmlns="http://www.w3.org/1999/xhtml" style="display: inline-block; padding-right: 1px; white-space: nowrap;"><span style=";display: inline-block" class="edgeLabel">1</span></div></foreignObject></g><g transform="translate(619.6202296701733, 588.0868590433626)" class="edgeTerminals"><g transform="translate(0, 0)" class="inner"/><foreignObject style="width: 9px; height: 12px;"><div xmlns="http://www.w3.org/1999/xhtml" style="display: inline-block; padding-right: 1px; white-space: nowrap;"><span style=";display: inline-block" class="edgeLabel">1</span></div></foreignObject></g><g transform="translate(1015.13281125, 649.4999989285714)" class="edgeTerminals"><g transform="translate(0, 0)" class="inner"/><foreignObject style="width: 9px; height: 12px;"><div xmlns="http://www.w3.org/1999/xhtml" style="display: inline-block; padding-right: 1px; white-space: nowrap;"><span style=";display: inline-block" class="edgeLabel">1</span></div></foreignObject></g><g transform="translate(802.8371472790959, 605.3520985680648)" class="edgeTerminals"><g transform="translate(0, 0)" class="inner"/><foreignObject style="width: 9px; height: 12px;"><div xmlns="http://www.w3.org/1999/xhtml" style="display: inline-block; padding-right: 1px; white-space: nowrap;"><span style=";display: inline-block" class="edgeLabel">1</span></div></foreignObject></g></g><g class="nodes"><g transform="translate(533.5625, 140)" id="classId-MainWindowView-0" class="node default"><g class="basic label-container"><path style="" fill="#ECECFF" stroke-width="0" stroke="none" d="M-229.90234375 -132 L229.90234375 -132 L229.90234375 132 L-229.90234375 132"/><path style="" fill="none" stroke-width="1.3" stroke="#9370DB" d="M-229.90234375 -132 C-95.1361295683032 -132, 39.63008461339359 -132, 229.90234375 -132 M-229.90234375 -132 C-121.0220282082158 -132, -12.141712666431602 -132, 229.90234375 -132 M229.90234375 -132 C229.90234375 -71.8697928677249, 229.90234375 -11.73958573544978, 229.90234375 132 M229.90234375 -132 C229.90234375 -72.83992449684627, 229.90234375 -13.679848993692545, 229.90234375 132 M229.90234375 132 C53.484003942048616 132, -122.93433586590277 132, -229.90234375 132 M229.90234375 132 C115.30809660307531 132, 0.7138494561506263 132, -229.90234375 132 M-229.90234375 132 C-229.90234375 32.444233574938295, -229.90234375 -67.11153285012341, -229.90234375 -132 M-229.90234375 132 C-229.90234375 56.09968243898393, -229.90234375 -19.800635122032133, -229.90234375 -132"/></g><g transform="translate(0, -108)" class="annotation-group text"/><g transform="translate(-65.0390625, -108)" class="label-group text"><g transform="translate(0,-12)" style="font-weight: bolder" class="label"><foreignObject height="24" width="130.078125"><div style="display: table-cell; white-space: nowrap; line-height: 1.5; max-width: 172px; text-align: center;" xmlns="http://www.w3.org/1999/xhtml"><span style="" class="nodeLabel markdown-node-label"><p>MainWindowView</p></span></div></foreignObject></g></g><g transform="translate(-217.90234375, -60)" class="members-group text"><g transform="translate(0,-12)" style="" class="label"><foreignObject height="24" width="119.890625"><div style="display: table-cell; white-space: nowrap; line-height: 1.5; max-width: 157px; text-align: center;" xmlns="http://www.w3.org/1999/xhtml"><span style="" class="nodeLabel markdown-node-label"><p>-presenters: dict</p></span></div></foreignObject></g><g transform="translate(0,12)" style="" class="label"><foreignObject height="24" width="191.65625"><div style="display: table-cell; white-space: nowrap; line-height: 1.5; max-width: 232px; text-align: center;" xmlns="http://www.w3.org/1999/xhtml"><span style="" class="nodeLabel markdown-node-label"><p>-adapter: UVRCoreAdapter</p></span></div></foreignObject></g><g transform="translate(0,36)" style="" class="label"><foreignObject height="24" width="370.765625"><div style="display: table-cell; white-space: nowrap; line-height: 1.5; max-width: 386px; text-align: center;" xmlns="http://www.w3.org/1999/xhtml"><span style="" class="nodeLabel markdown-node-label"><p>-settings_dialog_presenter: SettingsDialogPresenter</p></span></div></foreignObject></g></g><g transform="translate(-217.90234375, 36)" class="methods-group text"><g transform="translate(0,-12)" style="" class="label"><foreignObject height="24" width="45.484375"><div style="display: table-cell; white-space: nowrap; line-height: 1.5; max-width: 127px; text-align: center;" xmlns="http://www.w3.org/1999/xhtml"><span style="" class="nodeLabel markdown-node-label"><p>+<strong>init</strong>()</p></span></div></foreignObject></g><g transform="translate(0,12)" style="" class="label"><foreignObject height="24" width="175.546875"><div style="display: table-cell; white-space: nowrap; line-height: 1.5; max-width: 215px; text-align: center;" xmlns="http://www.w3.org/1999/xhtml"><span style="" class="nodeLabel markdown-node-label"><p>+show_status_message()</p></span></div></foreignObject></g><g transform="translate(0,36)" style="" class="label"><foreignObject height="24" width="154.6875"><div style="display: table-cell; white-space: nowrap; line-height: 1.5; max-width: 192px; text-align: center;" xmlns="http://www.w3.org/1999/xhtml"><span style="" class="nodeLabel markdown-node-label"><p>+_create_menu_bar()</p></span></div></foreignObject></g><g transform="translate(0,60)" style="" class="label"><foreignObject height="24" width="227.796875"><div style="display: table-cell; white-space: nowrap; line-height: 1.5; max-width: 259px; text-align: center;" xmlns="http://www.w3.org/1999/xhtml"><span style="" class="nodeLabel markdown-node-label"><p>+_open_download_center_tab()</p></span></div></foreignObject></g></g><g style="" class="divider"><path style="" fill="none" stroke-width="1.3" stroke="#9370DB" d="M-229.90234375 -84 C-69.99198634401012 -84, 89.91837106197977 -84, 229.90234375 -84 M-229.90234375 -84 C-104.96218928499825 -84, 19.97796518000351 -84, 229.90234375 -84"/></g><g style="" class="divider"><path style="" fill="none" stroke-width="1.3" stroke="#9370DB" d="M-229.90234375 12 C-105.93910489218406 12, 18.024133965631876 12, 229.90234375 12 M-229.90234375 12 C-72.8600141986224 12, 84.18231535275521 12, 229.90234375 12"/></g></g><g transform="translate(212.51953125, 780)" id="classId-ModelSelectionView-1" class="node default"><g class="basic label-container"><path style="" fill="#ECECFF" stroke-width="0" stroke="none" d="M-166.7421875 -120 L166.7421875 -120 L166.7421875 120 L-166.7421875 120"/><path style="" fill="none" stroke-width="1.3" stroke="#9370DB" d="M-166.7421875 -120 C-42.21453574008633 -120, 82.31311601982733 -120, 166.7421875 -120 M-166.7421875 -120 C-52.157267567950484 -120, 62.42765236409903 -120, 166.7421875 -120 M166.7421875 -120 C166.7421875 -49.41516253116124, 166.7421875 21.169674937677513, 166.7421875 120 M166.7421875 -120 C166.7421875 -64.75878071340182, 166.7421875 -9.517561426803638, 166.7421875 120 M166.7421875 120 C71.6526568874465 120, -23.436873725107006 120, -166.7421875 120 M166.7421875 120 C91.97820860075608 120, 17.214229701512153 120, -166.7421875 120 M-166.7421875 120 C-166.7421875 56.538365379262615, -166.7421875 -6.92326924147477, -166.7421875 -120 M-166.7421875 120 C-166.7421875 40.75955051740887, -166.7421875 -38.48089896518226, -166.7421875 -120"/></g><g transform="translate(0, -96)" class="annotation-group text"/><g transform="translate(-74.71875, -96)" class="label-group text"><g transform="translate(0,-12)" style="font-weight: bolder" class="label"><foreignObject height="24" width="149.4375"><div style="display: table-cell; white-space: nowrap; line-height: 1.5; max-width: 185px; text-align: center;" xmlns="http://www.w3.org/1999/xhtml"><span style="" class="nodeLabel markdown-node-label"><p>ModelSelectionView</p></span></div></foreignObject></g></g><g transform="translate(-154.7421875, -48)" class="members-group text"><g transform="translate(0,-12)" style="" class="label"><foreignObject height="24" width="212.25"><div style="display: table-cell; white-space: nowrap; line-height: 1.5; max-width: 253px; text-align: center;" xmlns="http://www.w3.org/1999/xhtml"><span style="" class="nodeLabel markdown-node-label"><p>-method_combo: QComboBox</p></span></div></foreignObject></g><g transform="translate(0,12)" style="" class="label"><foreignObject height="24" width="201.890625"><div style="display: table-cell; white-space: nowrap; line-height: 1.5; max-width: 245px; text-align: center;" xmlns="http://www.w3.org/1999/xhtml"><span style="" class="nodeLabel markdown-node-label"><p>-model_combo: QComboBox</p></span></div></foreignObject></g><g transform="translate(0,36)" style="" class="label"><foreignObject height="24" width="234.765625"><div style="display: table-cell; white-space: nowrap; line-height: 1.5; max-width: 267px; text-align: center;" xmlns="http://www.w3.org/1999/xhtml"><span style="" class="nodeLabel markdown-node-label"><p>-settings_stack: QStackedWidget</p></span></div></foreignObject></g></g><g transform="translate(-154.7421875, 48)" class="methods-group text"><g transform="translate(0,-12)" style="" class="label"><foreignObject height="24" width="158.375"><div style="display: table-cell; white-space: nowrap; line-height: 1.5; max-width: 197px; text-align: center;" xmlns="http://www.w3.org/1999/xhtml"><span style="" class="nodeLabel markdown-node-label"><p>+add_settings_panel()</p></span></div></foreignObject></g><g transform="translate(0,12)" style="" class="label"><foreignObject height="24" width="175.171875"><div style="display: table-cell; white-space: nowrap; line-height: 1.5; max-width: 209px; text-align: center;" xmlns="http://www.w3.org/1999/xhtml"><span style="" class="nodeLabel markdown-node-label"><p>+get_selected_method()</p></span></div></foreignObject></g><g transform="translate(0,36)" style="" class="label"><foreignObject height="24" width="164.8125"><div style="display: table-cell; white-space: nowrap; line-height: 1.5; max-width: 201px; text-align: center;" xmlns="http://www.w3.org/1999/xhtml"><span style="" class="nodeLabel markdown-node-label"><p>+get_selected_model()</p></span></div></foreignObject></g></g><g style="" class="divider"><path style="" fill="none" stroke-width="1.3" stroke="#9370DB" d="M-166.7421875 -72 C-62.85950007481276 -72, 41.023187350374485 -72, 166.7421875 -72 M-166.7421875 -72 C-49.13130855614601 -72, 68.47957038770798 -72, 166.7421875 -72"/></g><g style="" class="divider"><path style="" fill="none" stroke-width="1.3" stroke="#9370DB" d="M-166.7421875 24 C-33.935083768224615 24, 98.87201996355077 24, 166.7421875 24 M-166.7421875 24 C-65.07618373615762 24, 36.589820027684766 24, 166.7421875 24"/></g></g><g transform="translate(212.51953125, 442)" id="classId-ModelSelectionPresenter-2" class="node default"><g class="basic label-container"><path style="" fill="#ECECFF" stroke-width="0" stroke="none" d="M-204.51953125 -120 L204.51953125 -120 L204.51953125 120 L-204.51953125 120"/><path style="" fill="none" stroke-width="1.3" stroke="#9370DB" d="M-204.51953125 -120 C-115.01679408531737 -120, -25.514056920634744 -120, 204.51953125 -120 M-204.51953125 -120 C-49.899271820414526 -120, 104.72098760917095 -120, 204.51953125 -120 M204.51953125 -120 C204.51953125 -51.602840016861535, 204.51953125 16.79431996627693, 204.51953125 120 M204.51953125 -120 C204.51953125 -63.72544730795561, 204.51953125 -7.450894615911224, 204.51953125 120 M204.51953125 120 C97.03977594668883 120, -10.439979356622331 120, -204.51953125 120 M204.51953125 120 C60.28364395387695 120, -83.9522433422461 120, -204.51953125 120 M-204.51953125 120 C-204.51953125 58.790233200851574, -204.51953125 -2.4195335982968516, -204.51953125 -120 M-204.51953125 120 C-204.51953125 49.70597994745694, -204.51953125 -20.588040105086122, -204.51953125 -120"/></g><g transform="translate(0, -96)" class="annotation-group text"/><g transform="translate(-93.3046875, -96)" class="label-group text"><g transform="translate(0,-12)" style="font-weight: bolder" class="label"><foreignObject height="24" width="186.609375"><div style="display: table-cell; white-space: nowrap; line-height: 1.5; max-width: 211px; text-align: center;" xmlns="http://www.w3.org/1999/xhtml"><span style="" class="nodeLabel markdown-node-label"><p>ModelSelectionPresenter</p></span></div></foreignObject></g></g><g transform="translate(-192.51953125, -48)" class="members-group text"><g transform="translate(0,-12)" style="" class="label"><foreignObject height="24" width="192.234375"><div style="display: table-cell; white-space: nowrap; line-height: 1.5; max-width: 234px; text-align: center;" xmlns="http://www.w3.org/1999/xhtml"><span style="" class="nodeLabel markdown-node-label"><p>-view: ModelSelectionView</p></span></div></foreignObject></g><g transform="translate(0,12)" style="" class="label"><foreignObject height="24" width="191.65625"><div style="display: table-cell; white-space: nowrap; line-height: 1.5; max-width: 232px; text-align: center;" xmlns="http://www.w3.org/1999/xhtml"><span style="" class="nodeLabel markdown-node-label"><p>-adapter: UVRCoreAdapter</p></span></div></foreignObject></g><g transform="translate(0,36)" style="" class="label"><foreignObject height="24" width="291.734375"><div style="display: table-cell; white-space: nowrap; line-height: 1.5; max-width: 319px; text-align: center;" xmlns="http://www.w3.org/1999/xhtml"><span style="" class="nodeLabel markdown-node-label"><p>+request_show_download_center: Signal</p></span></div></foreignObject></g></g><g transform="translate(-192.51953125, 48)" class="methods-group text"><g transform="translate(0,-12)" style="" class="label"><foreignObject height="24" width="190.34375"><div style="display: table-cell; white-space: nowrap; line-height: 1.5; max-width: 226px; text-align: center;" xmlns="http://www.w3.org/1999/xhtml"><span style="" class="nodeLabel markdown-node-label"><p>+handle_method_change()</p></span></div></foreignObject></g><g transform="translate(0,12)" style="" class="label"><foreignObject height="24" width="179.96875"><div style="display: table-cell; white-space: nowrap; line-height: 1.5; max-width: 218px; text-align: center;" xmlns="http://www.w3.org/1999/xhtml"><span style="" class="nodeLabel markdown-node-label"><p>+handle_model_change()</p></span></div></foreignObject></g><g transform="translate(0,36)" style="" class="label"><foreignObject height="24" width="130.265625"><div style="display: table-cell; white-space: nowrap; line-height: 1.5; max-width: 173px; text-align: center;" xmlns="http://www.w3.org/1999/xhtml"><span style="" class="nodeLabel markdown-node-label"><p>+refresh_models()</p></span></div></foreignObject></g></g><g style="" class="divider"><path style="" fill="none" stroke-width="1.3" stroke="#9370DB" d="M-204.51953125 -72 C-81.560265487767 -72, 41.399000274466005 -72, 204.51953125 -72 M-204.51953125 -72 C-101.94145129084164 -72, 0.6366286683167175 -72, 204.51953125 -72"/></g><g style="" class="divider"><path style="" fill="none" stroke-width="1.3" stroke="#9370DB" d="M-204.51953125 24 C-111.79555037482015 24, -19.071569499640304 24, 204.51953125 24 M-204.51953125 24 C-59.360551968582655 24, 85.79842731283469 24, 204.51953125 24"/></g></g><g transform="translate(1005.1328125, 780)" id="classId-ExecutionControlView-3" class="node default"><g class="basic label-container"><path style="" fill="#ECECFF" stroke-width="0" stroke="none" d="M-154.22265625 -108 L154.22265625 -108 L154.22265625 108 L-154.22265625 108"/><path style="" fill="none" stroke-width="1.3" stroke="#9370DB" d="M-154.22265625 -108 C-83.9458454644365 -108, -13.669034678873004 -108, 154.22265625 -108 M-154.22265625 -108 C-51.75863578929743 -108, 50.70538467140514 -108, 154.22265625 -108 M154.22265625 -108 C154.22265625 -64.66847373930554, 154.22265625 -21.33694747861108, 154.22265625 108 M154.22265625 -108 C154.22265625 -39.09857200730936, 154.22265625 29.802855985381285, 154.22265625 108 M154.22265625 108 C47.11297750245845 108, -59.9967012450831 108, -154.22265625 108 M154.22265625 108 C34.02531363227783 108, -86.17202898544434 108, -154.22265625 108 M-154.22265625 108 C-154.22265625 50.1730831535498, -154.22265625 -7.653833692900406, -154.22265625 -108 M-154.22265625 108 C-154.22265625 45.38849573740149, -154.22265625 -17.223008525197017, -154.22265625 -108"/></g><g transform="translate(0, -84)" class="annotation-group text"/><g transform="translate(-82.8984375, -84)" class="label-group text"><g transform="translate(0,-12)" style="font-weight: bolder" class="label"><foreignObject height="24" width="165.796875"><div style="display: table-cell; white-space: nowrap; line-height: 1.5; max-width: 197px; text-align: center;" xmlns="http://www.w3.org/1999/xhtml"><span style="" class="nodeLabel markdown-node-label"><p>ExecutionControlView</p></span></div></foreignObject></g></g><g transform="translate(-142.22265625, -36)" class="members-group text"><g transform="translate(0,-12)" style="" class="label"><foreignObject height="24" width="197.9375"><div style="display: table-cell; white-space: nowrap; line-height: 1.5; max-width: 231px; text-align: center;" xmlns="http://www.w3.org/1999/xhtml"><span style="" class="nodeLabel markdown-node-label"><p>-start_button: QPushButton</p></span></div></foreignObject></g><g transform="translate(0,12)" style="" class="label"><foreignObject height="24" width="194.46875"><div style="display: table-cell; white-space: nowrap; line-height: 1.5; max-width: 230px; text-align: center;" xmlns="http://www.w3.org/1999/xhtml"><span style="" class="nodeLabel markdown-node-label"><p>-stop_button: QPushButton</p></span></div></foreignObject></g><g transform="translate(0,36)" style="" class="label"><foreignObject height="24" width="201.546875"><div style="display: table-cell; white-space: nowrap; line-height: 1.5; max-width: 241px; text-align: center;" xmlns="http://www.w3.org/1999/xhtml"><span style="" class="nodeLabel markdown-node-label"><p>-progress_bar: QProgressBar</p></span></div></foreignObject></g></g><g transform="translate(-142.22265625, 60)" class="methods-group text"><g transform="translate(0,-12)" style="" class="label"><foreignObject height="24" width="138.234375"><div style="display: table-cell; white-space: nowrap; line-height: 1.5; max-width: 179px; text-align: center;" xmlns="http://www.w3.org/1999/xhtml"><span style="" class="nodeLabel markdown-node-label"><p>+update_progress()</p></span></div></foreignObject></g><g transform="translate(0,12)" style="" class="label"><foreignObject height="24" width="169.421875"><div style="display: table-cell; white-space: nowrap; line-height: 1.5; max-width: 206px; text-align: center;" xmlns="http://www.w3.org/1999/xhtml"><span style="" class="nodeLabel markdown-node-label"><p>+set_processing_state()</p></span></div></foreignObject></g></g><g style="" class="divider"><path style="" fill="none" stroke-width="1.3" stroke="#9370DB" d="M-154.22265625 -60 C-71.05098999185314 -60, 12.120676266293714 -60, 154.22265625 -60 M-154.22265625 -60 C-53.52261458525439 -60, 47.177427079491224 -60, 154.22265625 -60"/></g><g style="" class="divider"><path style="" fill="none" stroke-width="1.3" stroke="#9370DB" d="M-154.22265625 36 C-59.108576856775215 36, 36.00550253644957 36, 154.22265625 36 M-154.22265625 36 C-44.084021116210394 36, 66.05461401757921 36, 154.22265625 36"/></g></g><g transform="translate(995.1328125, 442)" id="classId-ExecutionControlPresenter-4" class="node default"><g class="basic label-container"><path style="" fill="#ECECFF" stroke-width="0" stroke="none" d="M-175.8828125 -120 L175.8828125 -120 L175.8828125 120 L-175.8828125 120"/><path style="" fill="none" stroke-width="1.3" stroke="#9370DB" d="M-175.8828125 -120 C-86.38308238323292 -120, 3.1166477335341654 -120, 175.8828125 -120 M-175.8828125 -120 C-91.92130620187031 -120, -7.959799903740617 -120, 175.8828125 -120 M175.8828125 -120 C175.8828125 -68.1434485749131, 175.8828125 -16.286897149826203, 175.8828125 120 M175.8828125 -120 C175.8828125 -57.8462121361295, 175.8828125 4.307575727740996, 175.8828125 120 M175.8828125 120 C51.79372747412286 120, -72.29535755175428 120, -175.8828125 120 M175.8828125 120 C81.11530526468829 120, -13.652201970623423 120, -175.8828125 120 M-175.8828125 120 C-175.8828125 32.8262474878471, -175.8828125 -54.3475050243058, -175.8828125 -120 M-175.8828125 120 C-175.8828125 65.11270065263491, -175.8828125 10.225401305269813, -175.8828125 -120"/></g><g transform="translate(0, -96)" class="annotation-group text"/><g transform="translate(-101.484375, -96)" class="label-group text"><g transform="translate(0,-12)" style="font-weight: bolder" class="label"><foreignObject height="24" width="202.96875"><div style="display: table-cell; white-space: nowrap; line-height: 1.5; max-width: 223px; text-align: center;" xmlns="http://www.w3.org/1999/xhtml"><span style="" class="nodeLabel markdown-node-label"><p>ExecutionControlPresenter</p></span></div></foreignObject></g></g><g transform="translate(-163.8828125, -48)" class="members-group text"><g transform="translate(0,-12)" style="" class="label"><foreignObject height="24" width="206.890625"><div style="display: table-cell; white-space: nowrap; line-height: 1.5; max-width: 247px; text-align: center;" xmlns="http://www.w3.org/1999/xhtml"><span style="" class="nodeLabel markdown-node-label"><p>-view: ExecutionControlView</p></span></div></foreignObject></g><g transform="translate(0,12)" style="" class="label"><foreignObject height="24" width="226.28125"><div style="display: table-cell; white-space: nowrap; line-height: 1.5; max-width: 257px; text-align: center;" xmlns="http://www.w3.org/1999/xhtml"><span style="" class="nodeLabel markdown-node-label"><p>-main_window_presenters: dict</p></span></div></foreignObject></g><g transform="translate(0,36)" style="" class="label"><foreignObject height="24" width="191.65625"><div style="display: table-cell; white-space: nowrap; line-height: 1.5; max-width: 232px; text-align: center;" xmlns="http://www.w3.org/1999/xhtml"><span style="" class="nodeLabel markdown-node-label"><p>-adapter: UVRCoreAdapter</p></span></div></foreignObject></g></g><g transform="translate(-163.8828125, 48)" class="methods-group text"><g transform="translate(0,-12)" style="" class="label"><foreignObject height="24" width="136.984375"><div style="display: table-cell; white-space: nowrap; line-height: 1.5; max-width: 178px; text-align: center;" xmlns="http://www.w3.org/1999/xhtml"><span style="" class="nodeLabel markdown-node-label"><p>+start_processing()</p></span></div></foreignObject></g><g transform="translate(0,12)" style="" class="label"><foreignObject height="24" width="133.515625"><div style="display: table-cell; white-space: nowrap; line-height: 1.5; max-width: 177px; text-align: center;" xmlns="http://www.w3.org/1999/xhtml"><span style="" class="nodeLabel markdown-node-label"><p>+stop_processing()</p></span></div></foreignObject></g><g transform="translate(0,36)" style="" class="label"><foreignObject height="24" width="172.859375"><div style="display: table-cell; white-space: nowrap; line-height: 1.5; max-width: 211px; text-align: center;" xmlns="http://www.w3.org/1999/xhtml"><span style="" class="nodeLabel markdown-node-label"><p>+on_progress_updated()</p></span></div></foreignObject></g></g><g style="" class="divider"><path style="" fill="none" stroke-width="1.3" stroke="#9370DB" d="M-175.8828125 -72 C-86.84692422757806 -72, 2.1889640448438854 -72, 175.8828125 -72 M-175.8828125 -72 C-63.59782049713898 -72, 48.687171505722034 -72, 175.8828125 -72"/></g><g style="" class="divider"><path style="" fill="none" stroke-width="1.3" stroke="#9370DB" d="M-175.8828125 24 C-43.142960343269635 24, 89.59689181346073 24, 175.8828125 24 M-175.8828125 24 C-67.83235525783884 24, 40.21810198432232 24, 175.8828125 24"/></g></g><g transform="translate(615.0859375, 780)" id="classId-UVRCoreAdapter-5" class="node default"><g class="basic label-container"><path style="" fill="#ECECFF" stroke-width="0" stroke="none" d="M-185.82421875 -168 L185.82421875 -168 L185.82421875 168 L-185.82421875 168"/><path style="" fill="none" stroke-width="1.3" stroke="#9370DB" d="M-185.82421875 -168 C-93.0026394537369 -168, -0.18106015747380866 -168, 185.82421875 -168 M-185.82421875 -168 C-105.26910249612399 -168, -24.713986242247984 -168, 185.82421875 -168 M185.82421875 -168 C185.82421875 -83.1610848633968, 185.82421875 1.6778302732064105, 185.82421875 168 M185.82421875 -168 C185.82421875 -49.185577635293654, 185.82421875 69.62884472941269, 185.82421875 168 M185.82421875 168 C94.58046003312062 168, 3.336701316241232 168, -185.82421875 168 M185.82421875 168 C90.21667570942576 168, -5.390867331148485 168, -185.82421875 168 M-185.82421875 168 C-185.82421875 84.06219905264638, -185.82421875 0.12439810529275519, -185.82421875 -168 M-185.82421875 168 C-185.82421875 82.51572381897589, -185.82421875 -2.9685523620482286, -185.82421875 -168"/></g><g transform="translate(0, -144)" class="annotation-group text"/><g transform="translate(-62.5390625, -144)" class="label-group text"><g transform="translate(0,-12)" style="font-weight: bolder" class="label"><foreignObject height="24" width="125.078125"><div style="display: table-cell; white-space: nowrap; line-height: 1.5; max-width: 167px; text-align: center;" xmlns="http://www.w3.org/1999/xhtml"><span style="" class="nodeLabel markdown-node-label"><p>UVRCoreAdapter</p></span></div></foreignObject></g></g><g transform="translate(-173.82421875, -96)" class="members-group text"><g transform="translate(0,-12)" style="" class="label"><foreignObject height="24" width="188.25"><div style="display: table-cell; white-space: nowrap; line-height: 1.5; max-width: 226px; text-align: center;" xmlns="http://www.w3.org/1999/xhtml"><span style="" class="nodeLabel markdown-node-label"><p>+progress_updated: Signal</p></span></div></foreignObject></g><g transform="translate(0,12)" style="" class="label"><foreignObject height="24" width="200.9375"><div style="display: table-cell; white-space: nowrap; line-height: 1.5; max-width: 241px; text-align: center;" xmlns="http://www.w3.org/1999/xhtml"><span style="" class="nodeLabel markdown-node-label"><p>+processing_finished: Signal</p></span></div></foreignObject></g><g transform="translate(0,36)" style="" class="label"><foreignObject height="24" width="198.0625"><div style="display: table-cell; white-space: nowrap; line-height: 1.5; max-width: 238px; text-align: center;" xmlns="http://www.w3.org/1999/xhtml"><span style="" class="nodeLabel markdown-node-label"><p>+download_progress: Signal</p></span></div></foreignObject></g><g transform="translate(0,60)" style="" class="label"><foreignObject height="24" width="267.15625"><div style="display: table-cell; white-space: nowrap; line-height: 1.5; max-width: 299px; text-align: center;" xmlns="http://www.w3.org/1999/xhtml"><span style="" class="nodeLabel markdown-node-label"><p>+model_download_completed: Signal</p></span></div></foreignObject></g><g transform="translate(0,84)" style="" class="label"><foreignObject height="24" width="271.1875"><div style="display: table-cell; white-space: nowrap; line-height: 1.5; max-width: 299px; text-align: center;" xmlns="http://www.w3.org/1999/xhtml"><span style="" class="nodeLabel markdown-node-label"><p>-processing_thread: ProcessingThread</p></span></div></foreignObject></g><g transform="translate(0,108)" style="" class="label"><foreignObject height="24" width="285.109375"><div style="display: table-cell; white-space: nowrap; line-height: 1.5; max-width: 318px; text-align: center;" xmlns="http://www.w3.org/1999/xhtml"><span style="" class="nodeLabel markdown-node-label"><p>-download_manager: DownloadManager</p></span></div></foreignObject></g></g><g transform="translate(-173.82421875, 72)" class="methods-group text"><g transform="translate(0,-12)" style="" class="label"><foreignObject height="24" width="185.796875"><div style="display: table-cell; white-space: nowrap; line-height: 1.5; max-width: 222px; text-align: center;" xmlns="http://www.w3.org/1999/xhtml"><span style="" class="nodeLabel markdown-node-label"><p>+get_available_methods()</p></span></div></foreignObject></g><g transform="translate(0,12)" style="" class="label"><foreignObject height="24" width="175.421875"><div style="display: table-cell; white-space: nowrap; line-height: 1.5; max-width: 214px; text-align: center;" xmlns="http://www.w3.org/1999/xhtml"><span style="" class="nodeLabel markdown-node-label"><p>+get_available_models()</p></span></div></foreignObject></g><g transform="translate(0,36)" style="" class="label"><foreignObject height="24" width="136.984375"><div style="display: table-cell; white-space: nowrap; line-height: 1.5; max-width: 178px; text-align: center;" xmlns="http://www.w3.org/1999/xhtml"><span style="" class="nodeLabel markdown-node-label"><p>+start_processing()</p></span></div></foreignObject></g><g transform="translate(0,60)" style="" class="label"><foreignObject height="24" width="141.53125"><div style="display: table-cell; white-space: nowrap; line-height: 1.5; max-width: 185px; text-align: center;" xmlns="http://www.w3.org/1999/xhtml"><span style="" class="nodeLabel markdown-node-label"><p>+download_model()</p></span></div></foreignObject></g></g><g style="" class="divider"><path style="" fill="none" stroke-width="1.3" stroke="#9370DB" d="M-185.82421875 -120 C-65.76347902127054 -120, 54.29726070745892 -120, 185.82421875 -120 M-185.82421875 -120 C-58.0069823362129 -120, 69.8102540775742 -120, 185.82421875 -120"/></g><g style="" class="divider"><path style="" fill="none" stroke-width="1.3" stroke="#9370DB" d="M-185.82421875 48 C-37.42670882668415 48, 110.9708010966317 48, 185.82421875 48 M-185.82421875 48 C-65.68410852643315 48, 54.4560016971337 48, 185.82421875 48"/></g></g></g></g></g></svg>